<mxfile host="app.diagrams.net" modified="2023-12-16T00:09:21.147Z" agent="Mozilla/5.0 (Windows NT 10.0; Win64; x64) AppleWebKit/537.36 (KHTML, like Gecko) Chrome/120.0.0.0 Safari/537.36 Edg/120.0.0.0" etag="SCfBTOlf4Jur4R9XU-Ky" version="22.1.11" type="device">
  <diagram name="Página-1" id="lNI8O_6lp03QC8RQpfos">
    <mxGraphModel dx="2133" dy="826" grid="1" gridSize="10" guides="1" tooltips="1" connect="1" arrows="1" fold="1" page="1" pageScale="1" pageWidth="827" pageHeight="1169" math="0" shadow="0">
      <root>
        <mxCell id="0" />
        <mxCell id="1" parent="0" />
        <mxCell id="wAobwoUItRhaqUtckkNE-56" value="&lt;font style=&quot;font-size: 16px;&quot;&gt;Funções&lt;/font&gt;" style="swimlane;horizontal=0;whiteSpace=wrap;html=1;startSize=41;fillColor=#dae8fc;strokeColor=#6c8ebf;" vertex="1" parent="1">
          <mxGeometry x="200" y="70" width="721" height="800" as="geometry" />
        </mxCell>
        <mxCell id="wAobwoUItRhaqUtckkNE-57" value="&lt;font style=&quot;font-size: 16px;&quot;&gt;Medir a concentração&lt;br&gt;de oxigênio&lt;/font&gt;" style="swimlane;horizontal=0;whiteSpace=wrap;html=1;startSize=80;fillColor=#d5e8d4;strokeColor=#82b366;" vertex="1" parent="wAobwoUItRhaqUtckkNE-56">
          <mxGeometry x="41" width="679" height="214" as="geometry" />
        </mxCell>
        <mxCell id="wAobwoUItRhaqUtckkNE-58" value="Sensor lambda&lt;span style=&quot;&quot;&gt;&lt;/span&gt;" style="swimlane;whiteSpace=wrap;html=1;" vertex="1" parent="wAobwoUItRhaqUtckkNE-57">
          <mxGeometry x="80" width="200" height="214" as="geometry" />
        </mxCell>
        <mxCell id="wAobwoUItRhaqUtckkNE-59" value="" style="shape=image;verticalLabelPosition=bottom;labelBackgroundColor=default;verticalAlign=top;aspect=fixed;imageAspect=0;image=data:image/jpeg,/9j/4AAQSkZJRgABAQAAAQABAAD/2wCEAAoHCBIIEhgWFRUYGBgaHBoXHBwYHBgaHxkVHxoaGRgcHB8cIS4lHh8tHxoYKDgnKy8xNTVDHCU7QD0zQC41QzEBDAwMEA8QGBESGTQhGSE3NDQ0NDE0ND8xNTE0NDQxNDQxMTE+MTE2NDExMTExNDE9MTExMTE0NDQ0NDQxMTQ0NP/AABEIAMIBAwMBIgACEQEDEQH/xAAcAAEAAgMBAQEAAAAAAAAAAAAABgcDBAUCCAH/xABAEAACAQIEAwUFBgQFAwUAAAABAgADEQQFEiEGMUETIlFhcQcygZGhQlJicrHBI4KS8BSywtHhY9LTFRckRFP/xAAXAQEBAQEAAAAAAAAAAAAAAAAAAQID/8QAGxEBAQEBAQEBAQAAAAAAAAAAAAERAjEhQQP/2gAMAwEAAhEDEQA/ALkiIgIiICIiAiIgIiICIiAiIgIia2NxlPArqc2XlexO/wABA2YkNx/HlKjtTps58WIUfS/7TgYzjfGVb6SlMfhW56/ev4GBaMSj8ZxXiG97EVD5Bio5+A28JyamfmrzLN+ZifD/AJlwfQ14nzf/AOuW+z9fWZaPEj0j3S6/lcr+nwjB9FxKHw3HGKo+7Xq/zNr/AM1/Od3A+0nEU/eKOPxLpPzWwHyjBbcSGZb7QcNibCqrUz4jvr9AG+kleExdPGrqpurr4qQfnbkZBsREQEREBERAREQEREBERAREQEREBETWxmOpYFdVR1QeZ3PoOZ+ED8xGPpYZkV3VWdtCAn3nte3ry+YmDMs4w+VD+LUVTzC82PoouT62lL8bYv8Ax1ZzTZ1TtDUDqbDVfukr6WF/IeE42JxuIzZ3dqqo23aG1nLDa5P3SOR/2lFsJ7ScKcUKLU3VSpOs96xHLUq3sDY2N/W00M84/dnT/DAqqtdtYU9oPukc1HPcG8rClmFHBWpqXck3J3bn9rz+F5vUsQlZygYBgNW+3d6+nxtGC3cFxTVzhL4agqi+ktWcbNYFgqU9TNa/XRec/iLD4p6RNXEs5NtNJECKzX5LTUO7nl7z2HO0hHCOcVMNmFOjh2DdsdDiwtpHeZ99jpUO3wt1l1YbBphyTuzHmzbk/Hw8hMWdb8+RZntUFVzlA+ikju52CgEseYIAG5Nj9Jv4ThXOc53FDslO+qswp+fu7uOv2esuvA5bQy7V2VJE1sWYooBZibkkjc7me8yxqZdSeq5sqDUf2A8ybD4zeoqGv7MmwNPtMXj0pqLXCU2cluioSwLMegCknwkNz7LaGX1NCPU2tcvoZgfBkUAIfLWx8bGTXOeInxlcMys9ZgBRUbrQD+7pXm9Qixv5j4c6j7NcyzM6mVKQY3/it3reOlQxv5G0IhPYAC/aD4qwPpzMxMrp0v8AMfrLw4f9luEwCk4gnEOfAvTRR+EK17+ZPwE2cZ7MMuqg9mr0m8Q7OPiKhY29CI1VFUr8ytgPPn/dvrM9OuhIBuvqLf31lpD2TtrH/wAldPjoJa3kC1gfO59JwuKPZ3WyVWqqxrUhuSAQ6jxZdwR5j5CBGaGo7g/8bA/uflOpl2c1sucMjsjeKn9ehHkdpHWrU6Xuar/v/d5mw+ZaiBUUob7NbY+vh6wLm4Y48THWTEaUc7BxsjH8X3T9PSTmfOIfsj4SwuB+KzRKYeu10ay02J3Q8ghP3TyHhsORGmCzIiICIiAiIgIiICIiAiIgIiIFZcY8e1ctx74NQEAVLP1ZmUNbfkN7AjqJGcZiqmO7zOS3mSb+pnQ9t/DzMaeNRSQAKVS3SxJRvqRfyHjIfh83th0a12YFW5e+psb+o0t/NKOk9PWu46b/ALyPYiuMOdQIJQgEEX1Lcd09Nrg38vLf1icfUxOxNh4DaaVdCaLsAdJZV1W2J7u1/nA6WZ4qnj3IVmQ2He5bWBF7dNmHxXoJo/wsO11BL778huLNtysbnp1mXC5XiMVrdKbuCQihEdixuLBbDfkeUmvD/ssxePs2JYYdD9nZ6hHoDpX1JJ8oRIuAOBqVA4bH9o2vS7aLDSNasgsedgpJ3vc2lmzFQorh0VVACqAqgbAKBYAfCZZFJAPadjjajQB2Y9o3mBsn11fKT+VV7UXNPGITy7Nbf1veB1eBcsw+KrHEnvVaaJTA6JfWur8xVbX6C/jLAkC9m+Kp/wARNgzBWH4lW4I+Gr6+snsUIiICIiBGsXwPl2KcuaAUnnoZlBPjZTYfC0qvjnKKeQYs0rMaboHS+9lJKlbnmQVPwIl8yFe0zh0Zzhe1UfxKAZx+JLA1F9bLceYt1gUkmJGFIRrlG9wnmh8Py/pOpgquo6G5NtOZjMOlemQLbDa06uEFLEU6NVXUOUdaidUrUyBq2+yylWt0Orpa1Fz8C5w2bYQazepTJpOTzYqAVb4qVufG8ksrH2S4jXXxar7umif5h2i3+P7SzpAiIgIiICIiAiIgIiICIiBr4zCpjqbU6ihkcFWU9Qf75yoMR7KMQlbRRdex1M2tz7oOkABVuWay+Q9Jc8QIPkXs0wOWWaqDiX8agGgHyQbEfm1Ts5hwxh8fUBZQFAN1AFgxUqGXopAPh+878QMGEw64OmlNb6UVUF9zpUBRf4CZ4iAiIgJBPallDY2glZRc0yVb8jWsfgwH9Uncx1qS11KsAVYFSD1B2IgfP2V5hUwDqysVZTcHwMuLh3imlm4CsQlX7p5MfFSf05+sgvFXCTYBiy3KMe63+lvBv1+dox2VTDyj6EiUxl/G+Nyyw1Cov3anet6MLMPmRJHg/alRbarQdT4oyuPk2mQWJEilD2gZfVFy7r+ZD/pvMzcc5avOuf6Kn/b5QJLPLqHBBFwdiPEdZDMX7SsBRHdFRz5KFHxLkH6SNZr7RsRirrSCUV5XHffw5sAB/T8YHC464SGSVgtNgUcMyb95ACLqw8NxY9bHwnBp4QZdTNzdzufK/l8v75b1bMwCzkl3bcu5LEn1O5n5kuVVuKMStNLgHdm6Il92Pn0A6m0osL2O5aaOHrYhhbtXCr5ol9/6mYfyyxpq5fg6eW0kpUxpRFCqPIePiepM2pAiIgIiICIiAiIgIiICIiAiIgIiICIiAiIgIiIGOtSWupVlDKdiCLgiQzO+C9V2w5B/A53/AJWPP0b5ybxAoTNsA+XsVdGQ+Dgi/LcdCPMSP4h7c/75ifS1aitdSrKrKeYYBgfUHacDG8DZbjfew6qf+mz0/ohA+kD5+/xBTkZ4OKZ+surEeyfLa3Jq6fldT/nQzVPsewJ/+xiv6qP/AI5RTxe/WeqF6jBUBdzyVQWZvRRuZc3/ALc5Pk1M1K5ZlTctWqlV57XCaQd+lt+W8jmYcd0cEr0MrwiUVPd7bSqE9NSoBcm3Isb+UIryu7YdyjoQ4JBU7FSDYgjmCDcS2fYzgmFPEV25My016Cygs1vi67+UrChhmxjpRpqWqOwXzZif0/5n0Tw7lK5HhadBd9C94/eY7sfmT9IV1IiJAiIgIiICIiAiIgIiICIiAiIgIiICIiAiIgIiICIiAiIgJ5ZggJOwG59JjxFdMKpd2CqouWY2AEqjjTjRsxD0ad0pWs2xDMt+bW7yofIEWveBs8erW4pZRh3pvRpb6FYF3qcixtcCw2A8z42EC/w/ZA6+6RcbixuOY9ZjwuMOXOHRirg89udr6TbYgjcHkRfwk2pcKVOMKiVlbsqLIpdrXOsgHSg6mxG52G3OBveyPIwe0xbLvfs6RI6W77D56b+TCWjNbA4NMvpJSpjSiKEUeCgWHqfObMBERAREQEREBERAREQEREBERAREQEREBERAREQEREBETHWrJQGpmCjxJtAyTn5rm1LKqRqO3dBtZbEk+H0MwYjGHEghSF391rguvSxHJT4i808TghmNMq1MKP8A8zbf5cj4EQKx4p4trZ01rlU3KqhBFgNyp5O226sAedpE2qcrMBysV5AtfQ6fdQkaWSdrjDJ2ySuaZvpezI3iDfQ351caT4/GbfB3A9fiRlq1AaWHPe1W7zhuzfSgP2dWrvch0vKMPAvDDcTVxqUrhksXI26q60gfzFxtyUnlcXvjDYdMIioihUUWAHICYsuy+lllJaVJAiKLAD6kk7knqTuZtyBERAREQEREBERAREQEREBERAREQEREBERAREQEREBE1MwzCnl66nPPZVG7M3go6maCs2JHaVTpXmKY5DqC/wB4/SBvYjGBTpWxb6L6/wC05OLqAHfvudt9/gB0E5WejtgalEik6b9oLC4HNCOT38D9Jo5Hjmz4slNguiwq1CCCb3toU72Njbl5+EmarxVrHJnLopdFOp0Qalpg83T7rA8wNmuQd7GSHFZqmHVauoF+6ptyKtYfEe6wv0aa2Y46ll1M0aag3BDX35jcuereX6TS4NyGpiqSVK4ISxVUPNkU6KZbwGlVPnt0iI28LktLiOr22JTWtNgadz3WY7tcfaAIXble/OTBVCAACwGwA6DoBCKEAAAAGwA2AHlPUoREQEREBERAREQEREBERAREQEREBERAREQEREBETTzDFpg0LM6IOWp99/AC4JPlA/cdj6eBW7Hc8lHNvQfvOQ/ELOlkpjtCdI1MAij7zMd7DwAvOUiDFl3p4kYkjZ1YIHXwA0AW8gw3uN5hAFQalP8AfgfCZ1rHaFKnhLvVftKp5ubbfhReSr5fO80MbiuxUO+yc9N+8/h6TUFGpT7yDU2wRGPW/wBkdP09J0MNlqYa9bEsrOBqOq2imPjsSPHlJN/StTD5bUzoq9cFKPNKY2Zx5/dX6zRzrE0surKcN3NV6VXsxYE7FBcAkstmFxuNfjMmY502K1KjFE5s5urMDsPNFPIAd49J0eF8oZmFZ00ooIpqwAYk27xH2ABey+dz5bjLzk3DhxVnrqVTmKZ5v1u/gv4evUmTOIgIiICIiAiIgIiICIiAiIgIiICIiAiIgIiICIiAiJrYzF08ChaowVR1PU9AB1PkIGWrUWipZiAACSTsAALkmQLG8UUc0qFUYbXVbq41XtsC2gNcgbaxe3XadrHh81W9a9OhzFO9mfwNQjkPwD4yL5xk4zdS1lpogsHItewtpt1Wcuut8dOZnriY/FOrh6ZKMoJVhYWF9Lc1AChrKw0jSSA6WIebdDiSpjFV0QGqjBcQvIGn3rtYm9xZiN73DLvuTyMZiWp6UxAZbXOsgsXCqLMb+8QhKk/bRyLkgW0MLmq0cZSCKqoxFAoSWFmOlCx+0wdQCx5hb/aMvNTqLKqYoJvfn18Rba1vKc3FYupjWUVCW30pTQbuwNg4Xqeupu6t9gTz1UrCpqWxUozIVPTSdht5Wku4KoI6PV7Ozk6Q5HvIByXyBv8AOa9TwybhrSVq4gAsN1pjdafmb+8/ix/TaSmImmSIiAiIgIiICIiAiIgIiICIiAiIgIiICIiAiIgIiICV3xHxLUweIZuwDKhKKz6gtwy76xdUuC43AIKb7GWJIPnOb4QUcYrMrPhyxZHDL/EKFkFubBuhF/pOX9ZbJjfFkv1r0c3p5iFq6mqDXo7FRZ1qeDi+4F13Gx1KeRnQx1JKVq2KZe4LrSv/AA08C33m8uUrLC5iuV5mOxZ2paQ9lIb7BZrEbEWLqPzWvsJIFp189qr2gLsbMlBCQFHR6jfZXcbnvHoFBvM8y+N1FuM84fMcQKwDKgIAZvtFT0BHOznu+e81eEOG8TndenUVGWgjqzVHFl0ppY2J53AA/mPgZbtDgHDVij4gmoyi2lbLTC7HSqgXCi3Qi/W5veXU8OlJQqqoUcgAAB8J15mOfV1CeHeFWxNStiMRfTUrNUp0+V6W+jX1F73K+Qv1EnKKEAAAAGwA2AHQCeommSIiAiIgIiICIiAiIgIiICIiAiIgIiICIiAiIgIiICIiAnA4g4VwufBu0XSxCgundc6b6bkWva5sDcb8uU78QK+oezenhCxSs5LUjRDOSWUMro5I5EWe4WwsVG8l+S5PRyWnopL+Zm3Z28WbqZ0okkkW20iIlQiIgIiICIiAiIgIiICIiAiIgIiICIiAiIgIiICIiAiIgIiICIiAiIgIiICIiAiIgIiICIiAiIgIiICIiAiIgIiIH//Z;" vertex="1" parent="wAobwoUItRhaqUtckkNE-58">
          <mxGeometry x="5.720000000000001" y="38" width="184.24" height="138" as="geometry" />
        </mxCell>
        <mxCell id="wAobwoUItRhaqUtckkNE-60" value="Sensor eletroquímico" style="swimlane;whiteSpace=wrap;html=1;" vertex="1" parent="wAobwoUItRhaqUtckkNE-57">
          <mxGeometry x="280" width="200" height="200" as="geometry" />
        </mxCell>
        <mxCell id="wAobwoUItRhaqUtckkNE-61" value="" style="shape=image;verticalLabelPosition=bottom;labelBackgroundColor=default;verticalAlign=top;aspect=fixed;imageAspect=0;image=https://img.directindustry.com/pt/images_di/photo-mg/16860-18008848.jpg;" vertex="1" parent="wAobwoUItRhaqUtckkNE-60">
          <mxGeometry x="26.5" y="32" width="147" height="147" as="geometry" />
        </mxCell>
        <mxCell id="wAobwoUItRhaqUtckkNE-62" value="&amp;nbsp;Sensor óptico" style="swimlane;whiteSpace=wrap;html=1;" vertex="1" parent="wAobwoUItRhaqUtckkNE-57">
          <mxGeometry x="479" width="200" height="200" as="geometry" />
        </mxCell>
        <mxCell id="wAobwoUItRhaqUtckkNE-63" value="" style="shape=image;verticalLabelPosition=bottom;labelBackgroundColor=default;verticalAlign=top;aspect=fixed;imageAspect=0;image=data:image/jpeg,/9j/4AAQSkZJRgABAQAAAQABAAD/2wCEAAkGBwgHEhUQEhMWExEQFRgRFRMWEBIXGBcZFRUXFxUYFxUYHSggGBomGxUXIjMhMSkrLi4uFyAzODMsNygtLisBCgoKDg0NFQ8PFSsdFRktKysrLS0rLSsrNy03Ky0rKzctKys3LSstKystLS0tNysrNysrKy0tKysrKysrKysrK//AABEIAMIBAwMBIgACEQEDEQH/xAAcAAEAAgIDAQAAAAAAAAAAAAAABQcGCAIDBAH/xAA/EAACAQMCAwQHBAkDBQEAAAAAAQIDBBEFIQYSMQdBYaETMlFxgZGxIjNCshYjQ1JicqLB0XOCkhWD4fDxCP/EABYBAQEBAAAAAAAAAAAAAAAAAAABAv/EABgRAQEBAQEAAAAAAAAAAAAAAAARASFB/9oADAMBAAIRAxEAPwC8QAAAAAAAAAAAAAAAAAAAAAAAAAAAAAAAAAAAAAAAAAAAAAAAAAAAAAAAAAAAAAAAAAAAAAAAAAAAAAAAAAAAAAAAAAAAAAAAAAAAAAAAAAAAAAAAAAAAAAAAAAAAAAAAAAAAAAAAAAAAAAAAAAAAAAAAAAAAAAAAAAAAAAAAAAAAAAAAAAAAAAFY/wDSu0jSfu60Lhb/ALTL+VVY+Bx/THjbTfv7FyS6yVGb/qg8eRKLQBWlv2uW0XitbTg+/E8v5SivqTNn2mcNXPWc6ef3qbf5HItGZAwrUu1DhjTpqDqTmms88KblFbN4e6ecLPQnf0o0XM16eP6udKlLrjnuMeiimlvnPw3zjDAguOuPrfhepCgoqdWS55Jt4jHOF073h/LxImy7XdPqbTpNeMZp+TX9yvuKdRoazdVqzeeeb5X/AAx+zD+lIhZWNtUzsvmZRfVn2icO3X7Rw/mj/jJM23EGj3XqV6b/AN6X1NaZ6dDblk17mco2d9T9Wo/dgtK2lhUhU3i014NM5GsFK81uz3jOS90miWs+POJ7P9pUaXt+0vPIpWxIKRs+1zV6P3kIT98MflaJ2y7YbWf3lDHjGf8AZr+4qrRBhln2mcPXPWUoPximvJk3a8U6FdercU/jLl/NgomAdVG4o194yjJfwyT+h2gAAAAAAAAAAAAAAAAAAAAAAAAdNxa290sThGa9koRl9UQl9wRwzfevaU1nvgnT/I0ZCAKb4k7FqtzVnK0rwp0pJ8tKp6RuP6vHLzLOU5Lr3J9+N8L1zs54v0iFSrUhGVKnThXqVIVotL0cnzLDxJtRbk9sYT3ZswQvG1GVzp95BdZWtaK+NKRINS3dXEO87oalcRO6pZNHW7WUSVHdT1epHd5PdR4hS69+xDO3aOucJR8fMDMKfEFvV6rKS9p7bfU7Oaw2sfFP/wAlf8ko97Rx/Wx3TEVZSjY18LK+116dO489zpVnWzKKws8qXtZgMbu6h3s9tDWb2l3v5iDKf0fUpcqe/XZ9DrqaHfQ9STa7iHo8TXNJtvrLZs9tHix5y+qWF4DqPRFazabxk9vZJolLPjHiex29JU27nJtfJnhpcT0Z43xtjHceujrFpU2eGQT1p2r67Q9eMZ/zU8eccFrcH66uILdVm4c/4405ZUW9+V7tqS7yhdUvLSnRnNbtReCO4Q1ivw/cwl6WoqUHipGEn9trPNmKaT+3vj2FG04Me0bjXh7WXy0q8eZ9IzTg34Lm2b9xkJpQAAADjUqQpLMmkl3tpL5sDkDG9W430TTcr0npJLuhv/V0MG1jtSu62Y0IqHswuaXn/glFsXFxRtlzTkox9smkvMxjVu0DRbDaLdWXhsvm/wDBTepa1qV/LNWo8v8Aek3L4RW54lBy7m/GbwvhBf3ZKLv4b7QNJ1yp6HelVe0VJpxl4Rl7fB48MmXGs6Tj1m1jdcr5UmujSRefAHEL4htVKTzWpP0dTxaW0vivPJc0ZKACgAAAAAHycYzTTWU1hr25PoArfUuySwrNujWlTz0jKCml4ZTi/qYzfdkWt0/u50ai/mnB/Jxx5l3AkGuF92e8S2mea1qNe2DhU8oNvyMfvdJurTarTnT/ANSnKH5kja8+SipbNZT7mINRJ2nsOmVobV3vDGg3+9S1oyb/ABehgpf8kskDedl3C9znlpzpN98K0/JT5l5Eg1slaM+RoyiXtfdjNrL7m6nH/UpRn5xcfoQF92Pa5S+7nQqL+ecJfJxx5jqKmlCS/wDi/wDe84uml3L3bmdX3Z5xNaZ5rSo0u+DhU8oNvyMfvdJurParTnTfsnTlD8yQEC6UfFfE4tTj0bJR2qZ1ytMCj5qt/RuI0o0oOHJCMajb9eecuXV59+Ft3bHksb+pQnz4zvnHvO2pbYa8ZfSMn/YyXgPgS94tU1TlGCpLLlNS5ct4jHKTw/W7u4K6IaxSrbyjjJkuicZ39iuSneypRWMU5qM4/BTTwvcTFDsX1b8VahH3OrL6wR8uuxTU4rMK9Gb9j9JD5bPPkOok7PtI16j6yt7mP8Oacvf6zXkStt2q4++sqkcdXTqRn+ZRK5veyviizy40eZLvp1KbfwSal5ETHQ+I6FSFGcK8PSVIU/tQqL1pKPWS8R1Wz1pcRuqcKiTSqRjNJrDSkk0mvbuVf218QS0iVCGOaMk5Yb2/FzPHe8RSXvLUpQVNKK6RSS+GxTv/AOirCU6dtXS2jOVKT9nNF8vm2XRXFK5hqi54NpPZxby4y64z3rG6PVSpxpLHM1nrh4z8VuYloFy6NXkzhVfse6X4H89vc2SFzqFTLXTGxNE/K4t6C2wjyVtWiuhASuZTOHM5EEpW1CcyxOwzVpU7udBvavTe38UPtLy5iraVGpPoixex7Ta8NQpzxsozk/dySX1kvmPRsCADYAAAAAAAAAAAAAAAAAAAfJRjLZrK9jPoAiL3hfQL7epa0ZN/i9FBS/5JZIG87LuF7j1ac6TffCtP6T5kZqAK6s+yPR7atCrKrOrTpyU/RTjB8zXqqUlj7Oeqxv0LDhCEOiS9ywcgAAAAAADGe0bQVxFp9ahjM+X0kPbzQ3WPHGV8TJgBpPdU6lrN52knv4SXXz3JbWKMpVnJLaoo1V/vipPzbLQ7UuzbFd3dCP6mq81EotqD73t6vg+nd7MxFpwrqGsTSt6MpxhGNNSxiK5UlvN4WfiZ0YJbabVn7iTs9Ng2kk5t7JRXf7M9PqW9o3ZJB4ld1f8At0t/nOS+kfiZ/o/D2k6Mv1FGMH058Zm/fN5fmJop3h/s71zUMNwVvT/entL4Ra5vJe8tThPhGx4aTcG51ZrEqkurS3wuuFnxMiBcwAAUAAAAAAAAAAAAAAAAAAAAAAAAAAAAAAAAAAAPiSR9AAAAAAAAAAAAAAAAAAAAAAAAAAAAAAAAAAAAAAAAAAAAAAAAAAAAAAAAAAAAAAAAAAAAAAAAAAAAAAAAAAAAAAAAAAAAAAAAAAAAAAAAAAAAAAAAAAAAAAAAAAAAAAAAAAAAAAAAAAAAAAAAAAAAAAAAAAAAAAAAAAAAAAAAAAAAAAAAAAAAAAAAAAAAAAB//9k=;" vertex="1" parent="wAobwoUItRhaqUtckkNE-62">
          <mxGeometry x="9.879999999999999" y="38" width="182.24" height="136.5" as="geometry" />
        </mxCell>
        <mxCell id="wAobwoUItRhaqUtckkNE-64" value="&lt;span style=&quot;font-size: 16px;&quot;&gt;Controle do&lt;br&gt;sensor e do alarme&lt;/span&gt;" style="swimlane;horizontal=0;whiteSpace=wrap;html=1;startSize=80;fillColor=#d5e8d4;strokeColor=#82b366;" vertex="1" parent="wAobwoUItRhaqUtckkNE-56">
          <mxGeometry x="41" y="200" width="679" height="200" as="geometry" />
        </mxCell>
        <mxCell id="wAobwoUItRhaqUtckkNE-65" value="&lt;font style=&quot;font-size: 16px;&quot;&gt;Enviar dados para&lt;br&gt;aplicação web&lt;/font&gt;" style="swimlane;horizontal=0;whiteSpace=wrap;html=1;startSize=80;fillColor=#d5e8d4;strokeColor=#82b366;" vertex="1" parent="wAobwoUItRhaqUtckkNE-56">
          <mxGeometry x="41" y="400" width="680" height="200" as="geometry" />
        </mxCell>
        <mxCell id="wAobwoUItRhaqUtckkNE-66" value="Esp32" style="swimlane;whiteSpace=wrap;html=1;" vertex="1" parent="wAobwoUItRhaqUtckkNE-65">
          <mxGeometry x="80" y="-200" width="200" height="200" as="geometry" />
        </mxCell>
        <mxCell id="wAobwoUItRhaqUtckkNE-67" value="" style="shape=image;verticalLabelPosition=bottom;labelBackgroundColor=default;verticalAlign=top;aspect=fixed;imageAspect=0;image=https://cdn.awsli.com.br/600x450/463/463999/produto/38980171/c7f1747a98.jpg;" vertex="1" parent="wAobwoUItRhaqUtckkNE-66">
          <mxGeometry x="9.29" y="35" width="181.42" height="130" as="geometry" />
        </mxCell>
        <mxCell id="wAobwoUItRhaqUtckkNE-68" value="Raspberry" style="swimlane;whiteSpace=wrap;html=1;" vertex="1" parent="wAobwoUItRhaqUtckkNE-65">
          <mxGeometry x="280" y="-200" width="201.86" height="200" as="geometry">
            <mxRectangle x="280" y="-200" width="100" height="30" as="alternateBounds" />
          </mxGeometry>
        </mxCell>
        <mxCell id="wAobwoUItRhaqUtckkNE-69" value="" style="shape=image;verticalLabelPosition=bottom;labelBackgroundColor=default;verticalAlign=top;aspect=fixed;imageAspect=0;image=data:image/jpeg,/9j/4AAQSkZJRgABAQAAAQABAAD/2wCEAAoGBxQUEhYUFBQYFhYZGx0cGRoaGRsaGxwiHB8cGR8cIBsfHysiIB0pHyAbIzQjKC0uMTExGSE3PDcwOyswMTEBCwsLDw4PHRERHDApISgwMDAwMjIwMTAwMjAwMDAwMDAwMDAwMDAwMDAwMDAwMDAwMDAwMDAwMDAwMDAwMDAwMP/AABEIAK0BIwMBIgACEQEDEQH/xAAcAAABBQEBAQAAAAAAAAAAAAAAAwQFBgcBAgj/xABEEAACAgAFAgQDBgMGBAMJAAABAgMRAAQSITEFQQYTIlEyYXEHI0KBkaEUUnIzYoKSsfAkQ8HRFWOTNFNUc6KjwuHx/8QAGQEBAQEBAQEAAAAAAAAAAAAAAAECAwQF/8QAKhEAAgICAgEEAQIHAAAAAAAAAAECEQMhEjFRBCIyQWETcRQjQoGR4fH/2gAMAwEAAhEDEQA/ANmwYMGADBgwYAMGDBgAwYMGAOYMGI7P9WRDpos3sK2+pOw+nPyxmUlFXJiyRxX831tfMifVoiWWWOQk0Pu43az9CpwunX/5oyB/dYMf0IGM08U+JU1T5cIWQzvIGHpoSxyRMCDvepjfHBxzWWM/i7I3RqWRz5eaaM1pQRle1h1J/wBQcGU61G2WTMN6FfTsd6LMEC/XUQMZxD4lhkz2Vl116cuHWiaZRmo27Uf7SPj/AKYfRdTcZbPRk2kEczqu2xhzOYs/oiY3yZbNJLC6vc8Y9Ypmb8QrqhzMg0rHJm4yF3OmNHb9SIrxL5Dqg/ipkd6DeSYwf/MR/SPnaMcVME7gxC5Xrv8AwZzMi/Dr1Bf7jlDz9MSbzqpVWNFyQo9yAWNfkCcWwL4McvHcUBgwYMAGDBgwAYMGDABgwYMAGDBgwAYMGDABgwYMAGDBgwAYMGDABgwYMAGDBgwAYMGDABgx5dqwwzfUVjRnZgAoJNkAD52eB88RugHVM4VR9GnWBtqNKPmT8hv/ANRilZDqgYNrJ1Aku3vZ5J4Htv7DDTxZ4iZ6gg3LAEkd77m+FHz5O/A3r75il8tS5FDWzMfUR8gSKHbn6nHDLjWVU+jx5fUcMicX134LhmupRafQCdwLBLc7Aewske2MYHVjqIYc/EQb3Xb39/8AXFzhkHBZgl2Qt9uPld9+2GnW+nRuDIsUeihVhvMYkt6dWxOkAE+oCmar00Lhwxx3Rterc/kV/L9SU6vcBhuQu7WdQ+h3/wC2H+Tz5UP5bV5odSRwyMpDD6GgMM5Oho0ZkTWig2xtZALOmiLVlGrYfEf2JaTdGnVUIIZW3Uq9aq5pG0s298A8fLHakdY5Iss58QTeQsTU48wyEsTdyRywMKHHpdm+texueh8XoczBIyt6UgVzQq4WnViLN1pk/Y8d83bPyI9OCO5UrpPyO4/SsKxdVDag23zNteqySa/3vicTSZqWT6ijrnokkD3FnPLAOxPmzTIB8yrXfcJixL1disUrnUVzJWOqA0vEzKP8pq/njGsv1BSrEGgxu7qqDqQd+DqP6DEhH1uWOJFjkK6TGxFA+qN5GQiwez8d+94lGrNdy3W0GYEr2omy+XoD1UzyOgH6uBfGHfTuqsIp9bBpUkzGhSQCwjZioA9gpT9cZQ/iWUmFNAJRCg35CTJmIzx2CBB8mJxYOj+JcvJn2fUVjMk1M1KoSaKEWSTt95E30BX32bJZoo6oohhlYf2nlgV7yUB+VnDtp1DhCRqYEhe5C1Zr2Fj9RjNOidX8zJ6jJqKL09wur4CjxpIAOxBG4923xMydcYPFmZBbRrn1KrtYiYED66Y/3OHIWXfBiu9N6ogzE2tq8wwaBud5IzSj/ITeFct1l1yUkz08kfnErYW/KdxX+UDGrKTuDDWbPKgjLf8AMZVWvdgSPy2wsZV1BbFkWBe9Dk17cfrigVwYMGADBgwYA5gwmZheOiUYloCmDHAcdxQGDBgwAYMGDABgwYMAGDBgwBzHiWSvrjsj0MQ3iDrMeWiaSRqr9fkB8ziNga+LfEaZWEux37DuT7YwbxD4nnzDuWkYI/KhjpO9i14NbVY7A7bUp4u8Tvm5ixPpGyjsB7f75xHZLpzTNpWhxZN0LNdgf9gnscDMn4Ld02VWysLAFnZVDyN2KDQEBvYDT9Tt2GF44ixCjk/vg6T09mTykpfKJUKzAMeLctuu5oXdbgAmicOcggVo3+7ZA1ysWto7BVTp/ElkEhQSbAvnTD5rhyn4QHIKZBGh1NXqNUAfbn8vrhHNZllkQnTIIzS38PFXtV1778DkYVmDiMFS/lgsusnT5m9Xp5NgUdyPTXbDFt8Qko/SEJhrYu4DG7N3W2w73VUObrvh+esrQ1JQ76APVRoDsVFcUTwvIFYX6VmRHZAXUTRJbQ2mtwrnZb7mr9vkpmZICDqhPmCjpoA3RFGjq0gCyWA3U/Q1HSKaWmV7qj63KxqFjANKVBU/j+AjTd0Lr8IJ34RzHhzYgxKWUkN5TMrBhQI0spU0efLWh71WLV0HIKUZzHrcLIRqSRol0BaDlN1O7kAqbpeN7kopXZKCKyyxN5hAUAkFq+6YefJXp9Qajq/DpOLssefdmZZjw8bCKzKxIpZY3VjZoadIayTtwMIzZbMxnUyvS2Sb1rVckqT233xbuoyIX8tSFhSRqKeoVqK6uTZKVsNjfa8OI8kxb7swSjYLrGmUUFCgkaDYUfFuf7TfviJm4ZpLTKPlerkN2ocFex7nc4dZbqqaTvpFrYbmlIN/XbtiTzeQkA++TUBX9ovq3F3rADcEfi2se+I3MdKiI4eK/wCWnU79lYhvzLn88LRqPqYN09DmDMkR0rMARdiwCCUYX+a3XvXcYk4uuThY4w9gM2xom5Y/JcE/Nb/M3zisP0ZwRokjYA2PVoO3Gz6Rf0JxySeeNrkRwK4dCv57gH/+4Ud4zjLpl/h8XMJgXSvLEAY6v/hXlvYChqDkfLR3vaUyPXoZHmUNsVz6AsCoqVmmj3PuqtzxYHO2Mxy3V+bGnagfi2N3d+9+2HcPUoypawNRs6iAVokcfO/3GJxNmtQ9a81EbzNSpNkCosenzRGpG395mu++Hv8A4+PNhzLjiDO6lXc1BJGDVnc7fvjI48y6ppR2XhjpJFlWV0O2xIbcexAxJw9emHlpakATJ6tzU4QSAm/cX9SecTYNi6HmC+YzNk1cTKCboNGp29t7xN4zTofjJI88Y9BYSrlYwwYbMBoJ433dRX91vpjS8aj0U5hDN5hUUsxoAWT7AYVlkoXhnLuDuQT3FWPmLBG3zBwbKkVrqXjVFdIUVVlfYmR1CRH/AMwhq232DC9qO4OJrp/WI5QpU1rLaLoGQJy6C7KfPEV1LwfE8Coo1Mito81jpZ35lkZRrZuTzW/HFHQ/DyZIegySSOAgk02UA3oD4VBc3vQ3F3pJxnRomDnTqYIhYLtYI53BHyo0PzPAUnC2ZzboLVDJvuAVBr3GogH8yMNIpUjTzXYKlbFqXQt2NTdhxzsPfvj0crqIdJ5Ap3oFGRr/AKkY1/SRgiDzL9QDWKNjke35iwfyJw5E4+mK11rwzHO0cllZYzauCykij92xRgxjJOorfb63UPFWdmysU2V/iNcs5d20lhHloAD6Vslhe4v61RC3shq3mDBhsrYMLIPMGDBigMGDDeWcXpvfvgBp1XqCQo0kjAAC7PG2MF8e+LXzkpAJESk0P2s/M/tx74v/ANtc8YyyjzmWUsNCAinqrsVfpBuwaBK9yMY9lMuXYKosk1W5/wBBdYyiN/R3IZPzHCj2JP0G5P8AvvXvi2wwNAnloSG/HKuoeWrXvY5YgG2BKlWo0dgdI6Z5RAU6pmUOjVJ6BswlA2tt0ClDd3qFb45PMh9EV+SWUyWzHW63Z+IrRsWRyVu+Kp58uTiqR6WbMQBUUqwOltQCHVsCE0kBmFaG0lbBA7jDzLdT1xi0RVZgx8v0ki7oDhduOffvu5jkgKsT6h/KbRj8IUBlBFKBQHAt+fTht0pIQ480SaB/7rTq+Wzbc74l/RxeROKjoc5UGZl16jEo0ljQCitI3A0hvh7VtwBde890+JFvXof+Qt5l7kHhVIoggk7XsMPRk4ntos3G1EHRmF0k6RfLAhtrGwB5xXOsdQMkhI2ZviI2F0Aa9ga47XWKWONy0IdR6jqIUH0psCAFY0AN6v2+fc98cj63MBTMJF7iQBr3DUb7EgX798eYYkGzAm+Cdh7fECRzjhgSxvpv8LHn5WOBff2ws9igkqH3T+pwjZi6NQ9RCyqWFnUwI7HilJAJ3PBWzPUGlLEy69WzHSqMwGw1hdzsBsbqvliLzUTkLQBA/lqrPsB22qvcH3wzK++HZzngUunRPTdNdVLbEbXRG18DY88/mD7HHt88dAQp2o72p2Auq2O188sx5qoNMxISiKxJJOkE7C/Ux34HLE/U4lHUb1uoOxqrHbEaPJkx8H2PIpor9DvD6ReoGRbBsGubsseNiRQG7BHM5IlAB5cmm/UhXV/M2x3J2O5HCkigbKFc4IYiWAXkkVXY9j/v2wOTo6/TYGZyzPEwrSjqSD6fxNyhJo+wv23w2m6VLGCEkVht/ZtqVybFae/BFEdx/MMTUkTg+XHIWZt5bPpvcli3cr8QJFqdx6sJRxKqkeSwKbGZdWx7Xxvq3o+1CibEocV/crec6YBaywqpBKnSBEwPtSei/qp/PEfL0dCPS7Jtw66h/nXc3/Ri1yZijIq2UZiRrosb7sRyxA/Umt6OEpMuZAumMkIgsqCTQ5ZiO3+gxLoqy5IfdlUbp84I024U2NDhuODoHq/IqMeIepuHNjYcgDSQ3Fn2PO2Lk3QI2TXqKiiTsrC99gFNjcHY+6XWrZoOmTOAtrKCdNH7wKRRYUynTpB3I5o1Y3xbPRH1El8okd0fNNLKrLYKOrFuW2II/wAROwHvvwCcar0bqecXdpgFO4Rx5n5aiQ374o/TukPDKAESkbURGZCCSK1Ev8gwAJFbkABrOk+HMmsiCV0BB+EN3Hv7V7Hvjz5pZLUYf5PTi45G3K14+iO8WeJZ1WIoVU2bK8HYbaDf63hDI+PXCjzYwx7lTp/b/wDeJnr3hOPMKArmKjfGoe3uCP1xVs34HzUYIUrOPdSEb/K1fsTjUOfH39nVxqWuix5Px/lXNOWjP95bH6i8TWVzkEx1RyI523V96G9GjdfI4x7qWTaFdEkUqSavifZSN9gpQG+N9RHOG8Sk8cjj3/LGuTKbZPJMG9EaMvcmRlYfRfLIP+YYrniLw/mNQzGRlOWlsa0A1RSqSNReIWDIBvqA1Hi9wVpnR/EWbWGKZMydLi9LHzVXetLMQSD8h88T8H2hzRrqliikUctHIEP+R/UTjfIEg3i2fLpmHzMX3USqsUpjeF5pWHwLExY6b1euxQHBAJxn/wDCSZyZoTL/AMRK6PmvS1aCQfKVhdaVq1230Le1Yd+NfEUrzs+YKkREfw6IrEHzAHjkZWNlghS7A3IFC8WPwB0c5OLVKhMzhpZTd6TvS2SdTk7Xe5vf4caboiNBy5OkXzW/17/vgxyHgY7gCQwYMcJxohwnGQ/at4wkJX+FkZBExuRCRqJBFVwUuubBO/FXa/GXWTJeXR9CNQaQkKGvfQpP4a+JxtuB74q3U8hHIsqoFCIoRmJ0INJt18wX5jaebKgE0eSMZbRxk5yft6XZm/XOsy5mYSSSNIdKqCwC0KG2kbAarO3PO+JfpOWEAs0Zj6RESdiRVuQ1AC7sFWVl9QrbHZsrDFJcJLyjgH4k3+PYfHXHOggm90OG8XVIktXAibSoBC2KodgS1nkn5/lh+DClKUuK0WrJ5GB7LMJW9fmExRl5W0li6SNbhfwqtIzE2WHAa5vLQABIg6NaghxSj4gb3JUj0721hjspBuMh6mXkSHLPqlJtpTaKioLZy1DYLdkXtxZIxYZcsjjSZvNls6iwAYAbAHcupIr0kkDbvdG0jOTC3pbPGY6YqzHLxpK8wOkEsiKSOT5egnRQJDFxtR2wh1Lp5hOlpFL3RQLIpHz1PGFI+YJuxVjfC0uVmgkRrOsVp31EbbKe/wANWp2ptxRwh1LKoArq6+uyFCCuR8O5pCDYujWn32aZ53DTtdEbmM1QoHfDeNB2o/XbEjP0ESgSs9Pp9PluqsRGLYvqbQtKLqgTX968Q75SVT6ZFkFmtalCfamFqPa2IxT14skIxHDNp9wf1H5ftjmv6HvY2Pbvhqc0yDU6Mg/nFPH/AJ1tThSHMo10Q30PH5YHoUkxc5ijYq+/pUfuBf73hPNZskb2eABybPCjbuceXIAu+294cdNy+4lbZiLjH8qkfH/Ww4/lU6uSrAYyTUVY76T02tQZlWRtmPI5sRrX4QaurLNVAgAmTj6chBBYqwUksCrL3INA6q0jUT2G/dQyPTIvVesIFFkn24IHvYNfn9MPs3G7aXWrjLFHASQil5YiqXZvSAw2bkAYHiT5u5EemUtlGoaDZZt1Cqo1sTY29O/f5Xhb+LdlJRfQqFNQFaQ1FmFXQoEHc0GNne8Owkn3rUsixJbgONKEqI2A1afQdNeWN77GhhtlsuFlWUxyhhqqN1tvUpVGQUAVbf08gK3NbDSgk+6G6TiNV8t1ZpDq8wA1o4FWNQOoNe1jSKJw9gzaINgJQhGynSwW1VpAQoJBdmADAsqlbokYYjp5Kgj4mDsQFIAVaBJZtuTVb/qQDKQrrikUIFUKNGjW2vUQArIG0GUkodZsithY0jL/AAIKm2/GhHrGUuinltZ9JjVwz2Ax9Nb16iTQ/TSMNsjKw9H3YBNsJANLab9LHllsVp4vtzh50+RVieV5HtU30+ql7IDR0m7+MgHSaHpDYipOpFZH1XIjLoWMMVC6SSDuGYDUb0giyv6jKx82mtDDq8hMscCABmpWd5LQszEAsQvpXjfcWbNAXia/gisSq6SJLEqRmpEKFmNgox4sszMAxG+1AgYi4M1GWXzLUXu1aiPcgd8T3T0aWWNYHDqoKhUfTpD2CGDUdHN1qNDf4rwo2uTXGURTwz08ZvMEhVMETFtZAZhe3ofSpVjSgGgaS/bFo8Q+MEykViK/UEiTVpDBaDfhOgKL2o8p7sFlfDnRIcpl1ghFKNyeSxPLEnf2HyAA7YRzvhuCUzNIXLTBVZtQtUU35abelCbJrc2d+KmrPdFUkhl0HxYkiEyvH6UEksiEeVF5jVHCXv1SVzXcHExns5pKqo1OxHp423vckAE0QLIver0kYrOR8Dxw5hs0Rehi8cEQJT0io6vcuDZ9tRHAG8/lCXYn11ywYDS27lQByKtTuAaCEiyaOijtGZkIZRe/pJ9Jri9uD9ODdDgVvqXS8mADmssuWJNeZE1Raj21KF793RbxNtHHOA6SttY1RSmrvcEAlCwIrcWOMehkLjMcjmZSpU+aqGwRRDBVVWHyoX3xKBVOofZxHL64p9RI2aRQzb8VNGVet/nzipeJfC+Zy8cpdT5aKCXBVkOpgigNSG7NaSl7WTW+LXL0R8j5c7Txw5XLBj5cCNHJOzUqLKSxDkkKN+/tyI2XPST9I6k8xuQzxlh2T/2U6B/T8P5d8XjojOQ+FTL1OTOOmpUSAxKdgziCP1HbgGqPuL30nDrxRmZsw6wwDSA3lK4/s/MOzOWr4UPoUd2LGjSnD7qvWfKyqqraZJI4yG/kTyogXvsSSVX+8Sd9Jx6+z3JCZRKqypDq+6jdqXSnpDBFYrWxo1uRf4VY0XRfYIDpG/bBhxWDGqIAxVvGHW9ETBPh1FXJIUsFGp1TUCDxpJIqzQsnD3xH1RlUxwV5pHJ4QH8R+fsPz4xnvXfD0k6KrPGGRWClY/V6tyWYtqJvv373jlPPCL4t7Ob5N1FN/kYdU63M0hZXZrbUnmCNqFUPSFCmhQoChtd84ZTZiOZZcuhMcthyUYrCBakh0CEbUSDYoyLfGyGU8F5+nKyqFvSoaTS0p5KxlhQehQ1EAn3rC+Vyy5dfJEb6WCtK0ilJJm+IEKwtY1JOkEbn1GzVdE00MmRY42yMTpTiSJHiDq7KBoYDULtqk3302b/1vFq6rkss8rDM5cRpCAkcemne1B9UsdH+gEgd7N7xbSxxxyShwhA3QKWGksqgEte2oqN77e9YYZfrUoWQRzOFkvWqsdJ1c+njf3q8GuRjFllNXWh/07pvlbglIJAkgFE3RZ1UyHcxqTe5AdhfbC2WyWWlaSRphHHEKpSmp223RWB2FgHTyT2okxuX8TZhW1FDPGjIJCRWkHZV1qNiQDV3xi0TLZPmCKpFtkESGSItp0KG7MQE+K/hGxO4y02qNuUYKxq2fiOhI2QyiizSHWWL8pZ4UA0dywYNwawvHCpeQubOkEPIuyIQNNISduKYEjSOV3B8+EvBqNJ58oOhW+7QkEEjuaG9Gu9WO+LVnOiJI4Ykqo30KoFsBQe/cA1+m+NWc/0nNcl9/Rnko2IG/ttzh3pDwahCoI2Ug0PSDsBYJNcElixDc0amOteHZFGpA0rE8oNq+abtfbYte5JwwyuTy5CxmZ4ZSS0jOKjUC/RVhi9CxtvqA+iLPGscoycWReaycYUNFLbmg1akYA7AgiiRd7e1Xuawln/Db/E+XB3+IJRuwD6o6OqzXqv1bcgjFnTpk8QaNRHKigvoeMi0O9gj7tzZWxrJsBd6GGzlomCyJLl1JKvsXRqXSFF+k3RtqPxkfhGNG0nHfRWMh0XUxou6qNWh2RlbfYlvSSO5TTVLuRyJaaFVlKszEA7tVFu91yobY0bIs7HjEkgEpdwIpyaOskxkAUACAfTRJPK+mOyd94zNNCELhn1XwQDt7sf1J9yw2AxGTJKbSJTpWXfM5tFhPlqK1FdvRGb9YFXZoH6r/KKsue8CxotxSVpo+sBeCSQXjANG+4NbdgAKT4BymYzWeDwu0UEJBlccG/8AlexZu/NDfkLc79sfi6TLeXlY7UuA7P20aqIB9zRHyHzIIyeqEKx+7sjMy2gupYrI/mfdliys1qxkLbUx20ttZINAVfUkZirLK0kjKB5n9srKmzKLayb9NbMAy9idTGDMPGSB6T3FfX5bHfnkY6ZI22kjFbEaCVoglr03RNkewAUAVgjyLPH7HSVJKpDGioMjPoZQC3mBACLLDTvq3amPANqRwiVRegF20o+lwWFkMxomyQGu72u+QcMJ5083VblG3e2om9ytgCxxfF1tp2Ie5jPMuh4dMbszB1QNGyhVIW2oBSCdWpWvs22qqbhU3bI/M5lU1+VJIYj6SLK66JGkgUCpIu/Yg87YjNzZPJ/TC2Zy7SUTKsbCwyursDvessCWDEmjsdlU++Lj4Q8MaYzJmkRpG2CmnVRvvuN2Oxvtx74nR6/TxjWv+FGZbwv0jOPDKHjYq1Eah7EbjF7z/gnLP8GuI/3W1D9Gs/kCMQGZ8CZhG1RyJIoB2+B2Owqj6QKJPxdsRvR3od5L7Q8wm0iJKPzU/rvieyH2kZR9pNcJ+Y1L+ov96xnnWOnPBRfWLAsNGUCmtxr+F7N0QeB24xEIyevXrujo06avtqBF19D24OMcmKN4y2dy+YUGOSOUXY0sLB3HY7Hc4WnaRQNCBx31SEN8qsHUfqR+ePnYTFW1KSrDgg0f1GLX0PxR1COGSZcxcUTIrebbi5ACvYt3A5xpMGmdT6WcwNQEmWm/DMpUSLXAJRiskfvGxIPsDREP03xDm4mhgmUZiZ30OI4ni8pQDcryEmNux0qF70TWGHTPtKkI+9ywkHdoHWSvmUBNfmcc8V+ODLCsWWDJFKrB5yaMek/eJoALB9HBJB9a6b5xpbIRfjvxSk06myYIpDHCqqGMs3wtKFJAZI7odiTz6sOo+htluiZlHZi8hSVy1atTSx3fO9BQdzupIO4xDeBemGeX+MKN5MQ8vLxEUb4Ju6rc2d7Or+SsX3xGglyWYQFfwC722dC36Uf0wbJL4sqOY6C2bmhQvpj8jKOxBIaljUEDf0irAbei970a1vpOVEcYFVtx7DgD9P8At2xD+GugeWsbMoX7uJSPxkRoFUMfYbmu1n+Y4s2KkRdHcGDBjRSjzErJKHveRjq7UTtv2IFDf2wllsgjsD5h5q9ShSedI2u6+eLXnOkJISwJVjyR3+oP/SsV7qnhmX8IWVLsoDpvizpJA1V31XtXG2PAvTfzXKStFhKUY8USnS8tKocSFCur7pUWgqUKBJ+Jrs3Q7YT61LllCLmClyN5cYKB2LMCPSNLb1e9V74r/UoZ4jGuVzBjkZtKxyoV1bE1TCtIA5X9ceo+t5xQf4vKxI0as6y8qGCsAyjeibK/FfrrvR9xGRnjLo0KZeTJ5ePXNIAz6TWlUIcXbEc8X7j3F5XP0yRDZWr3Bry7HuKGmvoKxeMtK2YWaZ38qP8AmrVJI9hh8gKFFSQCCRhN8nNmFLEGVqCRLsmtiwUKrbKKBLEbbLyPiGd9o8UsvuUYf6PPRMzlxkPKkVWcEkRASLbNv5sjitRA9NA/hA2FY9dEyQkLTTj+Hy2WHqfToLaaIII3JawbH8wA3OG3hvMRZk0yiFI43d5EVxsgDGxT6iFBNLubvF+yK5LNQiKMxTxCjpDBqrcEqDqU97NHnB2d8cZN8pJCHTs/O0avp0vPX8PAwAEUS/8AOl078MGYA8tGgom8T7CxQNH3q/8ArsOf29sIZXKKhYjUS1WWZmNDhRqJ0oLNKKAsnknDi8Q9IBd8JPGrkalDFTsWW6+YsbYUkkABLEAAEkk0ABuST2AHfFcyfXXlVs0moxMTFk4t1MzWblbawtq1X8KRuxGJQJZ+kx6w6BoyGDVEfLVj/eUek/Wr+eIHrPXocvMMunrqI+ZGWIWmcEgEA/ePe7PZ0qSCDy48WeIjksugZlkzMi0oA0qW/E9E7IL7nihycULpOQUo8001SSNethbO3NUDY4IFWCQOACRqJwypKLa7HWZnDyO+lVLEnSqhQvyVaqv3wzhysucnjyuX+JrtqNIorU7bmgP0JoDcjCWbzLGkjUs8hAVF5Zm2Cgd7P+vzxrngLwqvT8uWkKmeT1TOOBW4RT/Kv7mz3AGjh6fF/Ux/kMnl+m5MIpCxxqSzNQLGrZ2PudyfYfIYxXxH1N+p5zzWBEC2F41aBbcHguaVb2sgbm7mPtE8WNnZzl4iRBE1SMO5G9X2qu/LADtv48L5WCJZZ81IUjjjMceXV2jll18sQG1LEea4OpjVAXk9UlaBZWl9QHYUOwAoAfQbDf5dzjywI2IIPzFH9MMsj1eTWpiC6rCoFUdyAq1+I7hRYJO25NHFn8RRGCSDzwGzLJq0RgaCfhjQXuWsG24G1AgXg0z58vSSq72R2WeZAyqhN0SCt3yBuNz+KgDyL7bSGVljMYIPrtiVNLqMgoxaSa8s0AaHG9qLrkfVo6tW1OQTQ1XIwpALOlwukcHlR+LWa8dO6Kcw4bzHN7yFlII4vnuRwOwK8gmrdKyRhOLUUSvROgAvrf1U1m1qzsAulgSAlN3BJKg/CRiz3hLK5dY0VEXSqigBwBhbGHt2fThHiqPBOOY9MMcOBs5iI6h4Tyk3xQKp90+7P/00D+YOJe8cJwoGedW+zJxZy86t/dkBU/51sE/4Riu5zpWbyykSwNo7sLqhxcsR7DgMaHtjY8BxK8EowtfLYBgxQ3QLAEX/AFIPaj8Cgb22LHkuitnOn5SJbo5qYyMtXpCR73vZsgC73I7YvHVvDGWzIIeFQxs609DDaixK1qPb1WOMRH2aZxYemGSQ0iSSsTVmysIAA7sSxAHckDGkZ+6JHqeZXKZZcvEvlbFUr1FY1oNJ8mPC3uWOrswwr9mGUd0cOq+WzCQgElVqlWLjcgx23tRHfauZcLnsy0cqOzn7yUqw8pEFokV3dqSfa2s0LYjV+gdOWGMBV0jSqhRwFWwo/f8A073jSRG9krgwYMaAYMGDABgwYMAJSxKwKsAwPIIBB/I4h+qeE4Ja+KMr8JRtl+iNaAfQDE7gwBQupeCJOQIpx8x5cn5HcE/4lxXc50t4WBLTZZhYDNekWNJAkuuNtnONex5Zb27Yzx8HGWCEt1sx7p8Pkp5bxq8J8y/KA1feIYnLKaZgIyQFArm7NEVTrmSbKRQwwbvIC3mqDTBTuFJF6rAL2AVGlSABvueb8KZZzqVPKbm4jo39ynwN/iU4hc/4Ol0sqmPMRtykgMTexIePYNW2yr7cYlNFxwcFV2jJukfaH1CM6P7cKLIKljQ5JO5C/SucWjpP2tQNtNG8R919Q/QnYfVsKZrwmuW1PGczkGIIYsvnQ1xvIhNCv5m+dA4puZ8BZlELQhcwLBWSCS9vYxn1Hi6A/M8Yt+TsjWcj1zKZpCqSxSqwKlGr1Xyuhh6voLwn1aXLZCJpypUqoSNNTtXFIiMxVATWygXQvYYxHqWTihjiEZmTM0RMjgpp39OkfFuPf+X54n8oks3TEaZnIizJIZ7P3ckV+kHkWhoDa2J7kiNeBerGfVepSTSvPmLLv8KgkADekBI2A9Wo1vv3OLP4K6JPNE08UYleEL5cbLoGt0BJOsBWpWBon1em6BBMXkOnyzwK7QrpElx2TofhUTj1EszG+CFY7AkjS/DnivJwpFlS5WSgLZCPMc2WclbALMGbcjnbtipHHTlsjPAPhQZNXz2eUJKoYRoxB8pRYLEg1rYXvey/U4i/tC+0lJ4/Iyblmc6WdQwr5KxAtj2rbvdgYjvtf8ZGeT+Fgb7pfjZTes9lBHKjv7mh23YfZx4S/iJgHKBSAXBYaq9gl+rUNiGHpu96IxTqRvTMsFkSJRrIJLCPcsF9RC+mxYCgLuCzKB8Vh71LwD1Zl1yQMVf1UrCRlJ3JZVJJa9zzvjXeieDMrlsxJmIUIdwFom1QCrCCrFkAkkk7cgbYkutZySLLyyRRtLIqkpGotmbgCva6J+QOAMARJMnKFDgzKQwI2Mdc6xfpqvhuzwe9J9S61JmM2srylmLKLYgbAhRdaQNudIA54vHOv5NsvI0TRusvMpla3Zm3JsbUT7E/1G9mPTMiWYyM6xGJktWVyxBvhQK2IFhiPjHzwskui95rpPnhipdJaC6NGwNtGoDalOkeZH6SWoQ2bBC4vPh7piwZdEDa6At7J1HSF1bk7UBQ4oYp8/iFIvKEM+tJXXUV1KDbAsGUgAObujwN+4OL/N90SauO91Asp7so5K+6jjkdxjHZYKvvYE45eHRy4O4/7j/f54SbLH64GxG8cOPTIR2x5vAAccOA45gAx4c1j0cMuo9Tjy0TZiU0qnSgP43OwA/P9AGPbCgGZ6usU8OVFGWUM0n9xAkjL+ZZaHyDHuMUXo0Mn/h0apXpzh1bkADyF9Rrcgcj513xaOgdBy7Zhs+s8skzMSwZ4yllCtABAaCmgL4A9sJ/Z74cZ8vGJEvRMJSWNAHyglD+ZgSD7CruwMWjlJ+5JE19mvhb+GgAf1MTqc9rPwoP7qjb9Tw2LxhOGIKoUCgMKY2aDBgwYAMGDBgAwYMGADBgwYAMGDBgAwYMGADENn/C2VlJYxBHP44yYn/NkI1fneJnBgCndT8HysukSJmE7R5mNW/RwtD/ACH64qPinw9KzE5v+LVDvaFpoQar4Y7CLW3wJ++NewYy4ojVqjFujdFeAO+WMeZNUjK+6d70dj7+pfbFa69kZo9EpBD69RLKTRUghiTtZPb89hV711Lw7lpzckS6/wCdbSQfSRCGH64h8z4PlX+yzJkH8mYUSbfyiVNMgH1LHEpo8/6Li7izCv4UzSGSQaUUDWa5YkkKt3d/O6AN33d9Rk1aQAU2WyTqb6lqHqPN0NiPfGh9a8JGvvcrIlWdeXIlSzydAAccCyUJ2G/tmnjANFIwje1DH1KukGyCLFDTW400NwRW2LFu9moc+fu6J/IeNM5llHl5hmA/DL94p+Xq3A/pIxavC32snMFongAmCFlZG9BIr8J3A/M/TGdTZeI5eFlzSSyyKSyKhV4ytWG3o77A7XV1W+PHg+BlzSPwAJVP+KNx+xo41LrR2brsX8ciSbMLI76jIpG2+6uwIqwNjY+VfLDzp8jZJBC8ZBY65AQUbgBbJ/CN62Ask77HDxsvCTllgBLKCqgghVXeyGBstfqEi0RV84nT0CIkvN6mbck/pt7CqH5Y8+TLGEaZzg5zl7KdCEedjKrLBCAyoxkkOlWuQhAi1dmlsn4j8hYOjSbg/Mf64oM/RwkdwOy6SXVdRKBqrUFNgNW11i65HNqyx7+pkVgPlQ/Lkjb54Y8kZrR0jGam+SJCUAkH3HYkH9R2wmwccMG+TCr/AMSigP8ACccDbJ81H+gx6bcH6HHQ6CMksh2CAe7MQy/koOpvodH1wyzHR3J1LmZVbvYR4z8vLK0o/pKn3JO+HKNVC6Nj3+fY7fnhZZ9673RwKQ7Jmo/jiSYfzQtob/0pTX/3D9MCdSjvSSUbjTIpjY/IBgNX+G8Tayg45LGGFMAwPIIBH6HEohHrGWOnj3+Q/wB/72xi/wBpniv+MzHlxH/h4bWOuHPDSfnVD5DtZxo/2qZpst02UQARh2SI6RVK4JYCuLoj6McYQgvbG4ojLj9nkJgngzDLeqZIoxXeW4y19gFYn5kAe+Po3p2UWKNI0FKoAA/ck/MmyT7nGW/Zb0B5XWSVR5cVVdHU4HINbBSzCxuWLG/TvruKZDBgwYoDBgwYAMGDBgAwYMGADBgwYAMGDBgAwYMGADBgwYAMGDBgAwYMGADEF4l8LQZxR5ilZF3SRdnU/XuNhsfYHYgHE7gwBksX2Ksr+nMRheNXlHVX9Oqv3xLZz7LIdNLbfQ6W9wKJ0nfuSMaHgwasjV6MuzXhCeKRGWXUEb0rININjSQGApiRe9bX88KdX6bCwBzEb0vY6yv5mM19N7xpeGsvTYyKA0/07D/L8P7Y82T0/Np2YxxeO+D78mS5jqMMcZiy60u++9C+avcnDNfEeagcCJEzEajYX94B8huyjbuvtvjR+qeDI3shFJ9xaN+o5P6DFQ6x4E02QzR//NA0/wDqr6f1s41DGoKkjzZJeoU+Xf7DXo32lIXVZ0aEAFbPqXkUNQ447gfXF3yfVo5BasKIsb7b/PGbdS8P5lB97GZV9yvmCvk3xqPpWPHTj5cdpMoYD4H1nSR2BBJ01Qrfg405I6YM/KVS1++jUpJdz3FDkbc1/pjyrqe3Ptv79sZ9kvE869tQ9gbP00mmJ/pDD54snT/FETnS1awBYFqw2B3XY9xzineOaEumWKK9qoj9/phbDLJZ2Ij0tyb3r6dsO0e8VHS0+ik/bMpPT2Ubkyxf/kMZd4S8Ky5vNx5dRVsfMavgVT6m/ah8yMa/9pDVlnr49im1+sK5Xav5tNfMjE59nnhwZeJpGUCaStRHYAD0g+wN2e5s9wcVMjJ3o3Sky8SxJelQACeTWwv/AH8+STiQwYMaIGDBgwAYMGDABgwYMAGDBgwAYMGDABgwYMAGDBgwAYMGDABgwYMAGDBgwAYMGDABgwYMAGDBgwAYMGDAEdP0eJuF0E90On8yB6W/xA4h+peD0k5CSf1Lof8AzoK/IKMWg4MRpMzKEZaaM0zPgzyiWQtCdLAGRQyCxVhw1Kauixse3BwyzfQyAvmQWgIp4qkVRvuqEfHWkAhT3JJPOsYa5vIpIAGB/Jiv+h3/ADxKro4fw0V8dGQzReWPusxtpJo6joAA+INbltTBQNS88DD7wz4kkWapAWiqyw4Xb8Q7H6FsWvrnhhQurXqFgU6hjv8APb9Kw66H4YjUB3OujaqBpQVwdNmz+3yxNmFDMpraoTfpa5iaMsr1GQ4sMtGmWyCAdVE17E6uwxZ1UAAAUBsAMesGNJUew7gwYMUBgwYMAGDBgwAYMGDAH//Z;" vertex="1" parent="wAobwoUItRhaqUtckkNE-68">
          <mxGeometry x="7.48" y="45" width="185.04" height="110" as="geometry" />
        </mxCell>
        <mxCell id="wAobwoUItRhaqUtckkNE-70" value="" style="swimlane;whiteSpace=wrap;html=1;" vertex="1" parent="wAobwoUItRhaqUtckkNE-65">
          <mxGeometry x="480" y="-200" width="200" height="200" as="geometry" />
        </mxCell>
        <mxCell id="wAobwoUItRhaqUtckkNE-71" value="Comunicação Wi-fi" style="swimlane;whiteSpace=wrap;html=1;" vertex="1" parent="wAobwoUItRhaqUtckkNE-65">
          <mxGeometry x="80" width="200" height="200" as="geometry" />
        </mxCell>
        <mxCell id="wAobwoUItRhaqUtckkNE-72" value="" style="shape=image;verticalLabelPosition=bottom;labelBackgroundColor=default;verticalAlign=top;aspect=fixed;imageAspect=0;image=data:image/png,iVBORw0KGgoAAAANSUhEUgAAAR8AAACwCAMAAAABtJrwAAAAhFBMVEX///8AAACzs7P29vZ9fX3y8vLt7e3d3d0/Pz+YmJiNjY1KSkoSEhKVlZX6+vr8/PwLCwtcXFzLy8sxMTG/v7/p6ekYGBioqKjR0dFRUVEgICBmZmZERESCgoLX19fk5OQ3NzdycnIqKiqgoKBhYWEdHR2urq7Dw8N3d3dOTk4sLCyIiIipYYSiAAAI0UlEQVR4nO2d2WKqMBCGRUQtKqjgUq0Kru3p+7/fkWVCEkIVyQKS76pFkOQ3mclk7XQ0Go1Go9FoNBqNRqPRaDQajaYJuHdUp6F+WIf51d5tPwPvuLkcvWB0/rZXt0FfdbrqwP76PVoabIbb09xUnUB1uIPTrEAZjK9JOzVa9/49FidhHPqO6uTK5fDxtDgJy95edZql4fpPVKs8wcpSnXIZuFfvFXUippO3V8hZbV5VJ8Z+b6fvv1x2UBk6qc6DOAafVdWJON5U50MMrs1DnYjtO1ay9ZGXPHe6qnPDnV+O6tw5v5cnW3zxlefeYFyrzhNHfN7qRLyPI/sQIY9hhKrzxYlQjDyGMXoHP+a8FGw9x3GhOneVMUfi5DGMzUF1/ipiDkXKcw83mi2Qw92v0yybLJB4ee4CNcwGuY7jmDGOsxUvj2H8W6Tvu7+w1oND1vwUfh3H0wwZ8tzJXji+DM8Tv44lqr8S6MfLMpwMVOtBspZSk8ow6tanrs1/VKvB4nhVrUtCv3ZlBxjWIca/qlbhL3bKxxVD1RL8zVCtL7MkNAArorKOLXj2KYtC3XDHotpYnyxUCWSWnGOgDEVVjMtonwzGSvoZOY/YiORLgTxz1Zkugy1dHveiOs+l2Hckh2MT8XnyQvvaLcdqN2N3qvzIVafTF67Obv/aL275TL8h2cmLNs7fVVzOmjEoINdEm4Llqfhru4yfb84n588hNmjnMOzXzX3plkO2n0ZsWMqjObfKfavEGTEHLjKMw10YMK6XCgcGq5PPHALr0V8rcU7ViYc823jZwC13fYK/CYZucqQdX7v4kV9GGl06eD4LlwVB9qgG/ZQ9ujS0+ov7BSsTcmIl91jQcArS76LnBl2ILr+eMWZifMYfQy1izQWiv3gjrS+RbjtDzXbHcKWXXsmCEOSRYBhoBQ9RfUgr4lW5WgIk+kAZ+cdqK9FeXtqYz4J6MTIYyGyvcnciGwFyIH9LNedI4/y3Phb6l2V8aRPtcxXhD+jQFA2kfMMVlHlQYwoZ6OduIccVKSvxtz5ZM4zl8mgvMmHcIwS6cQG1KbPbKLmQ+SFcWOdSS7owypI8qF9QYJdM20JN1u+x7hEB7b5G8AGYxMwcwJxw1DpDhX6crnrbk99FtZwf6AMvZGf9TD4izYHRsTv69Q65lEBRQ6UFVUFjFj+1oFpAlBEt1CcNyBP9R+wVhjuWpBLILRSATIE9yLqjoHQg24hNtzvafjeX/yJ9gvOMYJfesO6dw6KWH/U7Dgtu405OH5T7IfU/UgyybRWtxX2kzyuznal5xer0QbUnzGUyUQy5r8EDeQr1ecX51EYfZH3TEo2Zg5BM2sOZ9G+pTwCf+OS/HfB128JHK+nj2JMEm2mga6OPAR02SfXBJ/7PydxlLnc5TyF7+0rpk7WfmV0i9dEHIgwrjsBwW5pEGOBhsGBrjJp0xOyq99QHBZVxWcC7Mp04loXF61i3/hhVCWKG/Xvqg9qvcc8H0V8Vh5/gvrDIrVX6oAgjcmAborMhasQGcAULqVulzxSMSeTAyHZ8FGEg95VFF+3SB1WpKJ4gezujgB3FG1i/fml9slKJNlFqjj4QUUQpTruD9kmZikwyuC9znD1RUp9L4GFs+uhtzdAHFX8POatt2igKMveF92WU1IeiafogC7NFzsrb01eI6KJd+ngu+ixI/rCgVp3wD9uqD0pgF4rSHuy0n3WX4R16LdMHIoy98ZH8cQU/f0Duy8U7hFumD4xh9KEHeQcRloPcFzFpqGX6QIThbtIcjlCjCC0TWeMPtEwfFGF8Js7KnKJG0RbyTAzYldTn08bZJQ83SB+U3WvirKKmTmp3upD4HvOB5/T5YCWkQfoY1CSTKOyaUc8Rs4baFX/lRrejsJ2aMeEQ97dNHyoDcacgWabIsYu26UPO7zPjcS6yTJFjF23TxyN6xQaMTJHDmW3Th5yCk5QV0kCT0wVap886f8uGeIycbtI6fYjl5umkMNxAU7POWqfPDrvDSach4CM9a/L21ukzwu6AiUB4q5eaDvjG+rDXNo0xBwauHHf639TtbH2oZnglfajfccS6RwT5ufv0Tw8K4k6f2oisQB9qImolfULyjXS4I4z84o8YbOogmpOapduh7mbrQy9DqqQPNXVP2n6JBUtPsSyguf2ZgaZn27L12XVIquijbH5vweLBbFZmlrJsKgc9M4qtD702pYo+tBmQtkAlt/QjwUM3ZItOsjJNG3WmPjkXU0UfZesLOgU7/hysBCfTIjDhGv3Msg+fYPrklgBU0IcusEt5x4wUOLDK5D2MacWrme4qMhNylzf5OP+RQ++dInF9E5/1cXl47gPxTX+5zD3HxWyqynMJbX4Jn8xNOIRUMJ5L1PPySF2fK2B9t8fRvTiMYTOp67v57w9gc1z9eGOcQiJ5Cxeu+0tMhxN+xqHfZRpH2ZtIcdtTfnqcrW5+yX1ICriedgVbVUpb2wQUtKHrivz9WBu1P5K00BRD76/1gMbsz3ZRcw6EWfkwL0moOrqw3wwbLbdliNOIDTRVHqfWF3y8BQfUngvqhqrz/zcj5Xv1Fwxm1APWxkCyqe/+6l81OXO3nvvzezXZnz9ifX6cXrn8+PU53yGiVueDjD7qeGqROV/1PoOl0vNl/v2Ep1u9j5VD5xOZcs4n2mDnE6nOe0lcoYfHpdTsqJ1SSDgArCY+/EUs0QFIs+URfgBh0+W5VzGB3WjTJtsewBXmxbw6tnJeQNBe9bOmufNChJxPLf/MBnHwP99cYa+pEDiPBs2U93vxZs3zLKzV4/c1Dufh3nXP8n6FJ2HPpR/tIm0fZ/n41Y8Mm9Sr34szzrXakNlvvft2OOBeXx+Wtt9enQiXfYLQI7yTxBM+FDP4LXt82Hb+1nYnhzPvPW+Jtt32FJ0MZ396oqIF9lzewona4ayv4de4SJrtad7GgkNjDW4ruzf7GR4v4+nyGIxm4e/J37fCWZXCdR3HbZcd1mg0Go1Go9FoNBqNRqPRaDTN5T8EL5SmfzG+AgAAAABJRU5ErkJggg==;" vertex="1" parent="wAobwoUItRhaqUtckkNE-71">
          <mxGeometry x="9.32" y="45" width="179.37" height="110" as="geometry" />
        </mxCell>
        <mxCell id="wAobwoUItRhaqUtckkNE-73" value="Comunicação bluetooth" style="swimlane;whiteSpace=wrap;html=1;" vertex="1" parent="wAobwoUItRhaqUtckkNE-65">
          <mxGeometry x="280" width="200" height="200" as="geometry" />
        </mxCell>
        <mxCell id="wAobwoUItRhaqUtckkNE-74" value="" style="shape=image;verticalLabelPosition=bottom;labelBackgroundColor=default;verticalAlign=top;aspect=fixed;imageAspect=0;image=data:image/png,iVBORw0KGgoAAAANSUhEUgAAAXQAAACHCAMAAAAxzFJiAAAA8FBMVEX///8KPJH39/f09PT7+/v29vbw8PDt7e0JPZEAOZAKPJMFOpP///3x9vkDO4z6+fsAM48AMIkANo40V5sAPYwALY0AMI7///oAN5AAK4jm5ugALIwAN4sAMIcALogAM43d5Oucq810h7KUpcdxhbaisdDo7vYAOZYAI4azx93Bzd4ZR5MAKo+ZqMkiSpbM1+Smtc8mT5VAXaRMZ6Vad6tHaKDR4u1jfKrJz+LY4O+Spc328ffZ3uzo6PR1j7vn8PODnL05W5rp7+fI1uwAIIl5jrFif7NqhK23wtPc6/hkgbpXcKetv9snT5I9YZyMpMGwcZ3VAAAOgklEQVR4nO2di3bauhKGbUk2si3bQMDGm2uAECAXSJM2paSQ7PR6kt2+/9scSXYIAdsoPe3Kafd8K60JNenKzzAaSTMjTQMAAAAA4P8eA/8GoJdW6SeDXlpQFchLq/STQb8U/6f8FONPE50o/+qE8K+nPD7hi4fsCfxJP/3m1TPK//VLq/ST2VIiG25ypkGwScTFFBdETMyf8IkRaoPJeNrrvev1rq97nJPpeOJqyAj5zYjftboZoeTyjP/5Xyy6QUjB0ExTQwXycCnwCyad/U9nzaheDYrFIKEaRK3WWX868DFhjzfjAv8hmF+0FMv/t2j+HBBXyzAJMQ0Nry6h8f7kVbHUcByd6pR6lFJd5w/4I502itXG+cEAhfHNGjHR6lL4d4upCuJ2vi46Yhhr44t6u6E7NqW2bts6/2M/POBvA38Daq2oO9HW1Mb8wj8pBZBcBaKRAor9ChKuwjfZ7et6kQucjTB8pxhcvAkLPhOflEf3AqKrQAwOkl/yEn69HJYd3aN5qseGX4y6gxA9efUfF3z/Goi0VE3jXgYXGDP3G0XhyJ1cU4+NXbfblXvM/PiTQgrgXlThMSM2iIEJwgjNBxeRla/2U4vXhws35K9GRP6QP2/G82sgjyEj0iZHRZ3usPF1PNsr7XUeQ0aIXdSI3Qv3DJiRUblm27nOfNPSPVtvH72VMTu4F3W4nRMZMmI2ah0+R/FEd+o0JmzO3ROfnfKg86V/n9+CJGTk0d79seU9W3OOZzXfMg1CxmfAR0AR74XkbUPEgdua8jAl9wPAw0fLm6E4aISQUYnYpzNt1sySlh6e1Wiu36GHRwPw6c+Ah4xilXH5rZahq11pvznLD9ttGlwg7POhAUJGJYhcbwn7dTvDmqkTuZOAihlTpug6jd6FjA+jf9wi+a9BuBffHLcyTZnapY42DnbE73ZzZvoM3IsaxDRCwz2zMu2Y6q33oTYdZn0SkruKr1HoQ8iohggZw16UY8ZOazAvaNf1XL9uV4YjVGAQMirBLZ0MKnkLLk6rw6c9br+acw//PNT+ccHSFRE+/V2QpycXnYi5z+tmfuAY3UPIqAiPXpb5C4tOacAt2DcHe41sB8MDmNo/c4he1ECEHdRzp//cp8vFGdKpWLkRTDRmILoSpOCee06+pXfiPAFzUs67kRYvEbgXJRC+ajq5vppbOpI7cpjd50U51Kq8h7UXJRA7yA1LuLsuuWL9UGx14IOhZ+tZ46ndGjEQXQWEzss7RG92CMFYrrqjxXHOYFruw9qLEv6gvGN/zm5dyZCRO2xWQJ8Came9wDrChL30L/Q7EE7q+Zpz9zJ4cC8mI8ubcvYQEHVAcxXC6Q6XLkSXyQIG9zE+MpZHVmYMU/8CoqvAuu1dojfFjNRkSzP2MhMvczLV6oUv/fv8FrC7HeMoF32ADITIyTg0ROwY3mauA7f7Gpi6Av5NbbfowqebvcYMy11s4yArXC9fvPSv81vA3KMdmsfuxcTaQf1sYIq8al/r1dPH0vI5GLoK7lHKsGg7a4vndvN9LHqpfTcwZIou7ldTbb32ijCQfTfbots2peuTTqcpZ6TmScupftZktigjd8U00a09EF2FbdGp/nSmnwyk4X5Lp8fXMuEUocFNLWVpEkRXI8W9UEevi1nng/DleEZ6UOLPHU/J37IQoEMP7a0EARBdjRTRncbeqLzaqabC0jEPGfdLohKgNSKumCqFM8+hmy8F0dVwK1uiNyozbdTUkxw76sSrjPhEiE718hsc51WPhvamhwHR1dgQ3aZe+3TJCuFtY2XIxSRk5HMiT+dxzZLNZbbotK5vJFZbez7MjhTYsvTaWUdDJmLjxmFs6h4XXWRSH8QTUdrYc01DbPyz67q+LTqwm03RaeVrXI8bjlvxM16QhIwlKbpDP3zU/Lhq99PGsjCIrgYXfd1aqV3uItcQ+dPktml7tm17gdiuQ0xEL5R/W7pwjbmIG/33NxaI/iNsiM6pdzVS8MVW9NumJSqmgw4TZi3di0eDOx4yGhpeasvTzWUbLjq4dAW2RddbfTdEpk/McNKyuPEHS8MkyNiX7qV+qYmQ0XTDq8pWiS+IroZb2Szt4rH4QpsL0bE2btZsWnRFEjTeL1HdiS58NjeZXwg7R+WtCl8QXY1t0TnRZxLX44a33iF3L/K7gxafJ33mIbomZqRXjcOtl4HoiqS4F+5Rjhdybw6jcNzUg4HIBmAHTbveJaLO1zfDGU1LrgbR1UgV3a5EXS0pmBu3kpBxvzpciE0MxgfVN15taw1Ah+hFlZRlABE42q0uEpaOMLsdilRpHE4/LJgsRvfDSZS+3QSiq5EquqC+iAvmTG2cLAN0tbjPSDgpVtL360B0NTJF16Ouyx767vDLvKNhkyHT0MZ1PeM1ILoa2aLbEXcnpu/HfdWSKnTfZOPUTaNEdEirUyFbdOlhHjq5PKTVYTauZhc3guhq5InuRV1f5kjLLTp5IaO6nlbMDqI/BzdjTIyJurIoyUxyGQtsVM2r2gDR1cgXnbb6iLtzmSotFtnvhzkfDBBdlXzRdb2VRI7cp5vsPtrcKwLRfwTXy6v653PT+mfCRPdF7l6mQyu/WB1EVyNPdNFy1CkdkBDLVGltHFh5bxCIrkq+pdv68D7uwitCRjZu5Rc1guhq5Fp6xQlGsltm3OoS+eOSlefUayC6Enmi207zC3to6Bo3Ehy381QHS1cjS3RKdWoF47hqV6RgxBcyjnI8DIiuRpboXFnHGmvMFItcsm2jkezgtS3HziiwA9HVyBSdOs23bK0d/RzFLS8Z9+tg6f8bme7FqkyIH4+grvgbdcQ6DL8SHsNkuHUQXY000flQaVu1ycMmRvdKpnMddLUwbkE9Luvpgy/skaqxLbpot2uXK7N4b46QxQeZKh0efFiEsgU15qOpk9pcCkRXI9W9UOtownzhzOesXy25YhkA7wfRQp7FEEeOaaYOoquRIrrn1BozsTfnm77Wb9GHVOmSXl8QZiSRo0O3u2GA6GqkiO6UT69CsZgbmuSyattrqdLHi+TUEval5GzvZoDoaqT49Ealo83F3txcu6hTmVYnKzFEAmn1Y3IaEhul1E2D6GpsrKdTz7HORHAogkX3jmvORZedjdi+VLn+0ZcdpA0yiraSAiAbQI0t0Q/POjw0lNWi503xb6ISQ1bXxaYdfZTpL9z4v2xVq4PoamyI7tDGVy1uY+S+jpt70eJS5C+iOFVap/WF78uEDF9Ug4HoP8BGNgC1i5e+KwIX91sQrydy9yJTpU/ichjqDK9FURLhH4X/lJ+OpTAjVWM7BaN1Kaai7vlDPVEcMvIZadyn1KbDW1PkfmnafmvT0m9AdBW2Cr10vdhn7uCm8ZDNK0SXqdKx6E40DeVcVZvUN3dMQXQ1ti2d2lF/uVde7VUk1XX4JBAnBnrVayMu3p15ouYR3MsPkCI6j9TpWlNSGgxkqjQPGalnt1+7vjwDbHBT9raiF7B0JVLT6mxvrVJgVf4S8UG0/Go5D8XWXXhXdLbyMWp70CJQhXTR170Gt3SRKo1PSjygrE0Ic0Wt3btWSgUHt3QQXYG8BNIH0ZdYljQGHo3Ghk/MvwmbRmn707UbiNNVcE93i564l5JTPyHyHE38tkHTcr1q59CPQQXyale3urhM3Qj3S8cfxeHrGIUdWkvdOypfgOgqhHeNnaKLkNHHJ8PXLpMH3S1fZfRyLC5AcxV2dyBNJkfa/tEgPupVuyxnnAQT9EJQfTeMfN+cy6eJLneOJozxCzZ6x1lJXsEIRFeAkUm0S/TAxXGOl+wjFY4yX0Chq7Qa4aC56wxvHqdjguZIlmMYk2Jmjrp15MOMVIVw/m1Hh+M4ZMRMZkzPl0dehnOhtP0JzsRQIkTvgvxDjsXaS5IqbSBynjnuOt7xPYJW3ir4ZFbPP3InWWWU1XVaP/sdsh1rSWAZQAX/78ftigzRk+hFuJfecV5JwCdUgGUAFUghnEaVPNHjw6VEfjoPXDIPIeGWPhzjAli6CoT4y3xLd1bnHE2KXo7o1in24WhMJYhhkI/ZLRaE6G3ZVdpAg38Os4/b4TOjqY8gelFC5PwPLDunkMhuX4lYkbnfitkjLrXpqQtHYypCDITDXjWvfjfpKr2oZkXo8q76lGEEJ3opQQgp+O5pTtRoi5MCmNYb5obztW+ySAZEV0G4FwOPo5SGfw+itzt+aNyXcs+Y9oIrUQ4G7kUJEZUYJutnj6WOODBwtplBt8Hxd03so8IZ00oQLd6XyDnuiIeMndP8VgzFCxeDe1GGiJ5FhhHOWlle3WsPyOuttrrr2E5FLM+I5kcgugrSp/NxEo9KGarbxcGimrc6Y1veBMedqMGnK0EQEe3oMCHTjMPRPHrd2srlWscqjUJiyvRqONhbCREyylYLyJhGh6na2m097xRqJxjhuK6aD6UgugqxexGNdRm5Lzd27CKlvCPlypixpJEguBc1hHMRJbrCx/gTLyVy3D5Dap3S6czw5UYeRhAyKpKEjAXZ6xJ3LuoOFZP9/M0kibxr2B+IWJEkLajBvSgRWzqKM1oQQb1G267omcfUPxU9qByE0sSN2NINsHQlVj7dEJbKCuHXu+GhnbeEuyIY9pfIjJO+wKc/ByLaRsuMFln17xumNv4WNURbhid1FquidPksf0/K0d1Ek3134sp1Gb1AyKgEIeixbbQ8WJcwd3Reb4qjAFJ9DBV1j8HwbuyGxuo1IPpzeAwZhXuJvQwL0Zvve8dNa62F0aqDlG2VS8c3Jx2ksdglgXt5NgSjpGMRvxC5Lyd6AfrMn+3fnTWCIGjHFAWloNXYu5zOfIYMn389vtQXSTGw9qIGMQt/Fcy//kq5FEz36su0t+iuWHyffum4c3HH+s1r34Hoz2ErwiaM+eJw0ScHjMrvQ5bcS1ZPAj8LxvVmLBGeyUebbwKgCNl4QNaf2HYPsIgFAAAA/N/wX3+JHTmztZMfAAAAAElFTkSuQmCC;clipPath=inset(4.13% 33.33% 4.13% 33.33%);" vertex="1" parent="wAobwoUItRhaqUtckkNE-73">
          <mxGeometry x="45.93" y="45" width="110" height="110" as="geometry" />
        </mxCell>
        <mxCell id="wAobwoUItRhaqUtckkNE-75" value="Comunicação&amp;nbsp;Zigbee" style="swimlane;whiteSpace=wrap;html=1;" vertex="1" parent="wAobwoUItRhaqUtckkNE-65">
          <mxGeometry x="480" width="200" height="200" as="geometry" />
        </mxCell>
        <mxCell id="wAobwoUItRhaqUtckkNE-76" value="" style="shape=image;verticalLabelPosition=bottom;labelBackgroundColor=default;verticalAlign=top;aspect=fixed;imageAspect=0;image=data:image/png,iVBORw0KGgoAAAANSUhEUgAAASsAAACoCAMAAACPKThEAAAAz1BMVEX///8AAADrBUX29vYqKiovLy/FxcVzc3P5+fnx8fHf39/rAEHrAEPrAD9/f3/rADnrADTrADxJSUk9PT1sbGxfX1/rADGlpaXqAC0dHR3p6elNTU2+vr6KiopUVFSsrKzY2NjPz897e3uSkpKbm5s7Ozu3t7cNDQ0XFxf+7fL71dz95On+9vntAErybIbxYX76x9P2o7LvRWn0gpj3s8DwT3PuOl396e31k6X2nq/vM2PxZoH5vcj4sL/yd43tKlj0h5770dvqACT5w8vtKlNMTr0aAAAKoUlEQVR4nO2ca0PquhKGERQopbRFQO7QBSpyEUFQvCC69P//ptMWmkxupSAuOefMs79sZJLSt8lkZpKuWAxBEARBEARBEARBEARBEARBEARBEARBEARBEARBEARBEARBEARBEARBEARBEOSoGQ6e7m/nz8/P05f7xcfwt3/O8TJcjr/Kpm0YuothmyV7vhj89o86Sga3X5aRjTMYpv7wepjutfrFVfUwXf02g7ltc0L5ZHXra3mA/rsnHrkD9PTb3EzLhkSoNbo1+vzuBQonay53aKNV12jfvfhBWepqpfzBVb79npt3TgIuIrdJXO+h74/zZm1mXzabdZ16gK5nyaw0V/3vXCFHtKpFbpM42zTJf+fKh2U4tQzbNk2rXLaM0ep5Ph7f3t6Ox/PnVdx2/2bauu/l775xjSLR6jpymyPU6vFLfx7fP02WdzfSr2eT95Xluf2/3xhZBaLVaeQ2R6jVIIIn+rjNGvFs6WPvi1wQrf5EbnOEWkGGN4+DQT9gMHgcBkIOpnY8a+0tVvoy0Cp6iHWUWg0Hd6+Tt/nDw8PqaxTXbdPysF03NYqTQHQ4NeJ6/HHfa7Q3i1oyepNj0+rjaRy33WzGdDMbL7HJgnA064YKE2p644YVxnTvK6UbFXcC7hK4H5lWA9PksxpI6R4aP5nxuLX4dz/uyLQa22ERKCtVbFj24qx/l0sfl1afpR2kisU8a/tW0ZeTVJHwvg4+1NNMq2S3UMvni92NG2PacFolO8VavlbsKD2eVm8Uay6pbjKtskl7vbjdFLr1HTOnqR4m1TtvvnZmCvd+fqIi4/3GIF85AT+x2jklRpctz6oH2zBaXVDTXichuX6ShnAuKamizp9rYFOs7yDVLGxYiZ5pYcZDBlY+XCtyq1SrBmvW02LpM9gGaNXmurwSVKjwV73M8DaZS96m4kTWahUyrIQJGJtYm6+k4f3OWiVqvF2vGjuFbYhWtbrQZ4O9eFd23RZr05LZdCNK1S+HjKo3pVTm00G0KoqGFe0StiFaXYumTPifLkgMXDrw9+XkNqloWk1MtVQvvPEskCpuzA+h1R+Z5bl8XEmhIyvdVNmA+k9KZROt+jhW1qwkUoExWJImkLtpJc4qsU24VifEMytlAFlCQ23TEm5FZCgtGW+ZgP4knMi6K54CmLusilol4PfN7tVVlxsbolaXnXqyfgFW295mhF4Ao+ti56JbvBZsmEfTbLS6BbAWCIuAyKulkkpw66/MbLUFKf3bB6Qd/tlyWoHHXNusRW3GgQlaBdPpigqxdkcaMGqtU6hql7NJA2Uu1jYadfURZqHKXZlj3vLTZEagvtrWdQL+tphEK/p1gbaCHprXii7uVSLWuf+ZDqsmTTYzQaDW8z9SXU7pINLIGN0elb7J8xt7zrujT4ubrNa2rsGE2mjBauWQr5n0BUwwTisYNWbIX9tMoyLsSmNakqdwCgP6dNB0u8eaS127/czb3ZV4v2ZtyQmBsw1ugNWKGjDBIFWB04qRIdYJ/txg2rC/IZiGfmxBbNgRFAy35latpAmO/cyPqjtTWAKs8B0wEBjmg2yE1YqEUVxBmbosVis2vCYLQxPcLwzltXqBJEsV93My+AACLi1J3Xtv6yR8kGhlr/ig/MMWzazQnWgQH1eIB2G00siHrqopo9Upl/+R8CQGVonAJpGsEaE8quDhBZqkk00mJ9qa6ki0soVS3qclUTRUKyAVeF6MVpzHodA1jdGqwFpRd+7+f5ApreNvpyPEZHUa9575NpnuOZ8ICOnldq0MYYH7ECegp9VM3SuMZEARlNGqLbPwSMjrDFzyR68Ro67dnV6ZhpBAr7UKlpocW9qgbHXuglbGiJ+A/aw0uw4ZVzDagWURhVaco1DUGTqsFfU/Mer6Ug2hiuBO3qJfyQrGXqEhSS4qzbqsxMPC+3bjS5AqLi8wW+pdVfBkGV8UcVyRycFoxQeLVxKtRM5SzkYEoaJBhUolI5X8uHTQEIp4g7iiZiNPCD3Ac2Nv8Mf8larEmANdS0oaPilHWT/lWDBxuzgBBzK37pHNqroEgRVX62C0qhIr7iAIGTDh62Cgz7VCh7MGu7DJEufT3A67b2w+aIz4sdIvqSqBhpAEbZWKi6+IW4oYX7G3RaT2xhvMnD16zSvB/fBVvut8a8di+wCMK93gR9XNSlmxMRX7XuDxCZEwqxWdqtHidvZsDSl9eR7RYYQqSncc4ILjJgH7nC78IgNH1/ljHTcr9W5YWb5TD8L1M+HRslqBfBcaAR/M5YNwUafq+LrQ1SQFR1QV5kU0Py20gI3G5k5hvAdy6AYv1TBEquxI2hsYFJKKEKsVdVhwCchxPcjrDKSEsNGZPiLo/NpMEkmfDVycM2fRdx5nplKqr5BjfvLyFbh9WcrA1WTA6lXYzBqNKYgL9avgJqn73ww2cGESs1b9vujyCSZhKlj6NF/kqCNr+Hc9ToTTL8Np2Ha0/LAMiBbOGjkG7+dxWjlQl5zTbjsNNu8Q66LnXcdxYF30bHPXHfqnfKudybSvghIMHbPAu59deDb1wOnx8YiKe18SIbIMl0qXHv9Iq7dS/bSWr7crtxOUWgkEo1e9NQGSI3VNPqJYj/5eapmPFkKlUhVkdtRKCzH32K4V9U6a2o6uCerYPeIW4bvnsfjTeg+hUukP8q521CrmyAwrpBc2FpXkuzCfVooFvb1qn4lPzFXcxN18z2a3IsJHlV6SbuLsrpVs1+s6E3gRv5pDtGpmBFM2ndak07DHhrDyabi1HEPw97JKMA6dK3YsdNs0S+XySLoI7qMVrRYEXFZJYdz32+A8Q4artgh32DkRyPFhKR/iuxR2CUu9UQQ2ktPTsuljmwSrVP77157eL5Yf9PgoT1qd76+1IjdL70Bjn3Quzb1dkQj0PXf/H9qeS+4ww+3TFyU2VW6fPt/eQSl3Fo50b5crGFn95XI5mTwtPJ6eJpPlcja768sPe7A0UkoKXqicgx/Ij28V1xpWiusMLXAqfpiZDtr4LqXdzXtRaK/WVdxh4qqT93vrnTeuVPlevZuveNFJ7zLX2jnV6RuuWHY2pNL5w2SSyWQQ55NdB8X2ZsbZtkdcbTtbJdDaW7tR8Olt1WdL06ePkOFz0//4XL6Pf/qwKAnKo5wx+A0W/rEO3bRGD/O3xZM7617XzGazyeT97WX+sIrblmWWVbWYg0FqMtHPkP1jFpvN0qzuv5bj+3P3v42T999S9Yaeuf95bRlV8YUv1b7oMTGzw9+I84U0VYdq98PNTASnRGLriAfIfoX+SnVmJsCWHyTaH2+61VgXS1f0Xcq7/5z0MuS1VO9Vy5e9Xy6RX28THIBYsEoLyEdxnj2EwbSkeoNCN+PfeXVQBo1cC+sQ3IFh4i5nqX+H/twwxe2IrGEe5NVwSILNY3vnbNC//djKETB4X1mmoQOdbOvr5dBjii03S/gv+YcJhoP3l5VVKvlpYGk0f7v7kX/5wwmT6vhnIGA4uJtMJq/9YdRd2d3h6waA6O/Z/98gKZD4HHW48FtUZfU5WSUFcWkXuDNjTRxUatL1HAkXig0cU1tJtGkBC0EQBEEQBEEQBEEQBEEQBEEQBEEQBEEQBEEQBEEQBEEQBEEQBEEQBEEQBEGQ/0n+A9LBzzupNABjAAAAAElFTkSuQmCC;" vertex="1" parent="wAobwoUItRhaqUtckkNE-75">
          <mxGeometry x="6.559999999999999" y="47.5" width="186.87" height="105" as="geometry" />
        </mxCell>
        <mxCell id="wAobwoUItRhaqUtckkNE-77" value="&lt;font style=&quot;font-size: 16px;&quot;&gt;Acionar um alarme&lt;/font&gt;" style="swimlane;horizontal=0;whiteSpace=wrap;html=1;startSize=80;fillColor=#d5e8d4;strokeColor=#82b366;" vertex="1" parent="wAobwoUItRhaqUtckkNE-56">
          <mxGeometry x="40" y="600" width="680" height="200" as="geometry" />
        </mxCell>
        <mxCell id="wAobwoUItRhaqUtckkNE-78" value="Alarme industrial" style="swimlane;whiteSpace=wrap;html=1;" vertex="1" parent="wAobwoUItRhaqUtckkNE-77">
          <mxGeometry x="80" width="200" height="200" as="geometry" />
        </mxCell>
        <mxCell id="wAobwoUItRhaqUtckkNE-79" value="" style="shape=image;verticalLabelPosition=bottom;labelBackgroundColor=default;verticalAlign=top;aspect=fixed;imageAspect=0;image=data:image/jpeg,/9j/4AAQSkZJRgABAQAAAQABAAD/2wCEAAoHCBQVEhIWEhIYEhUaGRUVGBoYGBIZGRgYGBocGRgVGBgcIS4lHB4rIRgYJjgmKzAxNTU1GiQ7QDszPy40NTEBDAwMEA8QHxISHDQrISQxNDY0NDQ0NDQ0MTQxNDQ0NDQ0NDQ0NDE0NDQ/NDQxND40NDQ0NDQxNDQxNjE0NDE/Mf/AABEIAOgA2QMBIgACEQEDEQH/xAAcAAEAAQUBAQAAAAAAAAAAAAAABAECBQYHAwj/xABKEAACAQICAwoKBgcHBQAAAAABAgADEQQhBhIxBSIyQVFxcoGx0QcTFDRSYZGSobIkM0KCwfAWI1Nig6LCFTVDVHPS4RdVk8Pi/8QAGgEBAAMBAQEAAAAAAAAAAAAAAAECAwQFBv/EACwRAQABAwIFAgUFAQAAAAAAAAABAgMRITEEBRIycUFREyIkM4EjNGGxwRX/2gAMAwEAAhEDEQA/AOzREQEREBERAsYgC52CaNpPps1ElaCrflbM8+qNnXPTwlYyolGktN2QMxDapsSABlcZgZ8U5W9MZk5mxzPNfbMLt3pnEPX5fwEXafiVax7Op7m7vKKf0rH0nqHOyuihQRwbKRcjltMRpJujUq6hwtRnQX1nSq4F/Rya00SygnO2Z/8AZ3Cbbo+o8kqWva9TsEpFzq0d08HRZ+eNZztiMNbfdGvf6+qP4tU/1STgsXina1OrWcjOwq1BlfpTHIAQNvHyelNl0UQCs1vQPzCUirM4dty3TTbmqIjT+Gybh7tKlPUxNfxdRTY+MrNcjIht82W3Z6p77paRtTCPh8SldLgOmsjEA7GUjfc9yZoekxHlVTbtT5UmPwqgsPzyS/xJjRw/8+ivFc+uuMO27jbsrWUXsCdlth7j6pmJxPc6q6MCjshyO9JE7DubVLUkLG5Kgk8p5ZtRX1PJ43hfgVZjaUyIiaOEiIgIiICIiAiIgIiICIiAiIgIiIHP/Cod5hh+83YJzU8fMfkM6R4UzvcNzv2Cc2b7XX8hnFe7n1XK4+njzK2uuZ527Xm3aPH6FU6VXsE1LENt6+2pNu0f8yfnqyLe7bjO2PLU8OuznI+M2bRb65uj/UJrWG29bds2XRX65uj/AFCVp7m177M+GM0mB8qq86W9xJjcKd+PzyTKaSn6VU50+VZisMd8PzySZ3Voj5I8QyuFOfs7J2bcXzel0ROLYXhezsnZ9wvNqXN+JnRZeHzTaPLIxETd45ERAREQEREBERAREQEREBERAREQOdeFQ+bfenOOXr+Rp0PwrHPD8zzni8fN/S04r3dL6vlkfTx+VuJ4+vtebfo+foNTnrTT8Ucj19r983DR7+73P+t2mRbX4ydI8w1bC32+tu2bHor9c3RPzCa/hhvRzk/GbBop9e3QPzCUp7nRen9KfDHaTNbFVBy6vyoZicPwh+eKZXSk/S6nOvyp3TF4fhD88UtVui39uPH+MnheEOrsnZdH/NqPN3zjWG4Q6uydk0d81o9H8TOiy8Pmu0eWUiIm7xiIiAiIgIiICIiAiIgIiICIiAiIgc08Kh39Dot2mc9X8B2NN/8ACq362gP3D8xnP0OzmH4zivd0vrOW/t6fytxJ3vX/ALpuuj/93P8Ax+0zSMRwesdk3XcH+7n/AI/zGLZxmsR5hrlMWHWe0TNaKfXt0D8wmCptl1/8/hM5omf17dA9olKe50Xp/Snwx+lY+l1M/RP8qTE0OEv54jMnpYfpdTmX5EmKw53w/PE0mrdFqfkjxH9Mvhjvh+eKdj0a81o9H8TONYbhCdj0Z81pc34zezu8bmvbHll4iJ0PFIiICIiAiIgIiICIiAiIgIiICUlZQwONaf7vJVxT02o38XdAxdhfMknVUDl5Zp3lC32BfUC/4tMjpcjNjsTqqW37bATx+qYhMFVOyk/uN3TkrjMvp+Grpt26Yj2906jjUBH6pHGXCLdl/wAZuxXWwBZf1YKM2qm9XMm+Q4jNDTc2v+xf3G7pv9Gi/wDZqpqsX8WV1dVr63JsimJLtymqYmZjdpQQcsy2i9O+IC6zLvWN1Yg5Z2PKNmUiHc6v+xf3WmU0awdRMSGem6rqsLlWtc2sMhK00zltXeomifmjb3e+kuIppU1WopUJQMWcDXzJXhWv9kTW2xaXGrSVDy3J7pnNLcM71lKI7DUUXCtt1mNtnIRNdbBVQRek+30W/ASaonKLNduKInMZ8svhMQgOdMN95l751PQ3dAVKOqE1NTIb7WuOewnIqSMDmCOcH8Z0vwdne1eqaW85cHMOmq3M+zd4iJ0PCIiICIiAiIgIiICIiAiIgIiICIiBzzSfDqMU2qoAspyAA2DORKNOTdJ/O633PkSRl+raVlpEpNNJksOwNMgHMXkHC7eoyTRG+qfnjkCwie+EG+lU4K9MdkU+GfvfjA8cSQxJGci6slUuAfv9gkDE4eqxTxVVKdgbhqQfWJ2fbW3H7ZMU5RM4epQTZNHKSimxCgEm17C9uSauuGxY/wATDPz0aqH3lc9k2zR5WFI64UNrG+oWK8WYLAGT04RNTLxESVSIiAiIgIiICIiAiIgIiICIiAiIgc+0o87q/c+RJFXgNJWlHnVX7nyLIaHeNKyvGzIYXb1Hskqlwqv545Ewu37p7JKpcKr+eOQPVNi9MdkpT4R52/GKexemOyUp8I87dhgeafV+/wD0yNUoB7XF8pJQ/q/f/pkdapFtnxlqZiEVRlJp4VLg6tm3ovduK1uP1CbNuWoCZG+c1fys+iPjNk3Ea9K/rPYJbMSrhkoiJAREQEREBERAREQERECkSNVxSqbG5PHa2Uxm6elOEw+r5RV8VrcG4JJ4r2W9h6zlIzCcM5EiU8arKrKdZWAZSCCCCLggjaCJf5UOQ/CMwYSIkfyteQ/DvjyteQ/DvjMGGuaRbiVHqGog1wdW6jhCwA69k17FK9FCatJ0UnV1mWwueL4GdE8qXkPw75idIsKcRSCKQpDK++uBYAi2QOecicJiZaYm7KJmwIFrXP7wy+Gc9qu7qI7B96zBWsxAOq2+VrchEkY3RSq6FQ9IcHa1T7KleJPXI24OhDKXG6Ap1wDak9Ovig9NLkimVKqrAZWvmBcbLAQlemkFMAdLWGY4oGkNJb34+UgbeP4zG7oaC4w16hw9WguH1r01d62uq5ZN+qbPbxmZLcHQggVP7Qdah3up4l6mW3W1tZF/dtt44Mr23YprTQkEB9fUY2AbVK62ry2y9ssTdBCQACSTYC207LD1zIbtaLhlwiYbVSnR8dcO7lj4xka4NmJzVtpHF1elDcF1qU2ullfXO+a9tYHLe+qB50sJWY28S46SkD2mbZuVhTTphWte98uLId09vKR6/hHlI9fwkxiFZy94nh5Svr+Er5Qvrk5gw9onj5QvrkHFbu4am606lenTqNmqM6KxvkMieWMwYZWJG8rXlPsMup4hSbA59cZMPeIiSgiIgIiIGCxLb5+ke2aPpnofXxlSnUoOmzVZXZltY7QQpm5Ypt+/SbtMk0VstuS4+MzXRdxMAcPhqFEvrmmiqWz3xAzNjsF75SdKRArEpEgViUiSKystvK3gViUlYCIiAi8oZYWkj0vK3nlryqtA9Lzl+luheLr46pUpItRKhVtcuo1LKF1XBN8rWyvlbjnTwYgQcLTKU6aFtYoqoW9IqACeu090bMS6lhmYtYgAHjvtnmBZrHaDY84MIyz0REuqREQEREDW8Sd+/SbtMkYfgCRcTw36bdpkrD8ATNd6RKMZ5PUIBtA9SZUTVsfpN4uoyFCxGqbgrY6wDbOuRxpcPQf2pJ6ZMw3GJqA0uX0X/k75X9Ll9Gp7E746JRltxMAzUDpcvov7E75J3P0kFWoEVWBNzc6tss+Ix0yZbPKzyR56iEqxEQKGarpdu+2HVUpW8a9zci4RRta3GeITaamwznGnuFYVKdb7BU0mPEra2shPIDci/qlapmKZmG/DU01Xaaa9pnVh03YxIbWGKq6/KXJX3DvLdU37RbdzymmwcAVKZCuBsN81cDkM5lbl2cv/ADNw8HuEf9fWIIRyiJf7QTW1nHqu1uozGzVVMzEvW5pw9i3biqjETnGnrDf1lZamyXzoeEjisyltU2v1zyRs89t5WptMtTaOcSBsURE0UIiICIiBrGJ4b9NvmMl4fgrImI4b9N+0yXQ4KzNddUkeqcjJFSR6/BPXA53u95w/NT+RZAp0wcyL5tc3O9A/Jk7d/wA4qcyfIkgK1rZAkawBudjXvl1maxsr6qpTGoDb7LG99hGtYW6h7YemAhNjwQb34zbK3X8JQNlsF7at7nZzWh2uDlmQATfktbK3qEamir0wBsP2QDfhX25TJaOn6QvM0xjte+VrkMc75i+zLZmfhMlo59eOZo9D1dFSSE2SOmySE2TNZdERAoZEr4ZXVldQykWIIBBB4iDtElyloGsjQzBa+t4m+d9UvUKX6Ba1vVs9Uz9OiFACgAAAAAAAAbAANgnvaVAkJmqZ3kWVlJWShEqHMy1do5xK1eEZRNo5xA2KIiXUIiICIiBq9c79+k3aZNo8FeaQax379Ju0ybRO9HNM11akj4g708xkhzI2I4J5jA11kDYmzC4O0c1MGTPJad/qxbnbvkZfOR975LSS2HbxyvrDVAta5vsI2bOMSJTEKeS0/wBmPa/fHktP0B7z98sp4VwtQFwdbVtvmNrEk3NsryythHK0wtSxUnW3zjWGsGtcDPIEZ8sj8rYjGXuMHSv9WPefvkanTVa7BRYAC207QDxyUtB/Gs+tdDsXWa43qjg7Nqk9frniB9Ifor2CWiVZZ9BJKbJGp7JITZJQvlJWUgeWJxCU0Z6jBUUFmJ2ADjmK/SnB/wCZT2nuldLvMcV0H7JxNF1i36wrYkWFomYiMy0tWqrlXTTu7X+lOD/zKe090qulGDJAGJQkkAZnachxTjDYWyK/jmzZltvfshT/AFj2SuBFqtMa5bNTnb0hIiqmZxDW5wl23T1VRp5d/ErLV2CXSXMhVuEZRNo5xK1uEZahzHOIGyRES6hERAREQNUrHfv0m7TJ9HgjmmPqnft0j2zIUzcTNceeFdbqZIaWESRq+IqFKrMBcgnb6xaP7Rf0F9pmfqYeWDCjkjQ1YNt0WB+rvzEyn9pt+y+Mzvk3qlBhRydkaGvuw6bpMf8ADtzse6X4Vy9UsRYkDLbssJlWwv5ynrTwoB2W6hGhq90EkJsnlaeqbIFYiIGG0t8xxX+m/ZOI4cA65/eM7dpd5ji/9N+ycWwFNCG1nVTrHIsAfZKXO138tmIv6+0vdsO+qCRvMmG+U217AOVBuobVWxIzsvqnlhltXp86/MJkDUUpq69PYqlgV12VbaqseQaq+vei97SKUAq0iGDZjYb7GEyo7oelxs54eYnGc+jvC7JfLKewS6dD55icZj6KVGWpWpo3os9NTnmMiby7D4hHK6lRHzHBZT2GahpZoXXxeMqVadSiilUFqjupuqBcrKbjKaxU8H+MB3opueLVe3zAScQjL6AicBbcTdrDcAYpAP2bu6+6jHsnrQ023VoG1Ss3NWpL+KhvjLKu8xOQ4PwnYuw16eGqcxq0z8dYTOYbwkEgeMwTfw6tJ/gdWTgdCiafS8IOFPDp4il0qRYe1C09/wBPtz/2r/8AhxH+yRgWVuE3O3bJ9LgjmjE7lPrsVsQTcXNiL8UwWP0rwuHqrRq1CHsL2RmVb7AxHHbPKUwtEs+ZQSgYEAg3BzB5RyysJVYS20rEBaUtKxAWl6iWiXCAtLhKReBdEtvKwIW7WDNfD1aSsFLoyAnMC42kTnzeDRybmql+i86dKQRmNnMP+mb/ALWn7r98vw/g4rI6sKtPIi+T5gEG3wnTIAhM1TOkyqgsBESJX3ToJUCVKyI5AIVmUGxNgbHZckQh5Ykb8yxBmOcds969BixIRiOUAmXYfCOzKCrKLgkkEZDn44whsMsqUwwsyhhyEAj4y+JdVh8Xo1gqmb4Six5fFoD7wF5iq/g73ObMUWpn9ypVHwLETbYgaDW8GOH/AMPFYinztTYD+UH4zw/6ZH/uFT3P/udFiBSc60n8HxxNcujlATckBSeq7DOIkSmG04bBMlNEWm2qiqi3ZCdVQFFzrcgE9PJ6noH2p3ysSMGVviH9A/y98p4l/Qb4d8RGE5PFv6DeyV8U/oN7IiMGTxT+g3sgU29BvdMRGDK7Ub0G91o1G9BvdaIjBk1G9BvdbulM/Rb3H7pWIwZUz9FvcfujP0W9x+6ViMGVLH0H9x+6LH0W91u6ViQKEH0W91u6c40g0GxFfGVKiPrU6jh99cFcgNW3GBxW4rREDq+BoFKaKTcqoBPLYbZJiJdUiIgIiICIiB//2Q==;" vertex="1" parent="wAobwoUItRhaqUtckkNE-78">
          <mxGeometry x="24.01" y="30" width="149.66" height="160" as="geometry" />
        </mxCell>
        <mxCell id="wAobwoUItRhaqUtckkNE-80" value="Alarme doméstico" style="swimlane;whiteSpace=wrap;html=1;" vertex="1" parent="wAobwoUItRhaqUtckkNE-77">
          <mxGeometry x="280" width="200" height="200" as="geometry" />
        </mxCell>
        <mxCell id="wAobwoUItRhaqUtckkNE-81" value="" style="shape=image;verticalLabelPosition=bottom;labelBackgroundColor=default;verticalAlign=top;aspect=fixed;imageAspect=0;image=data:image/jpeg,/9j/4AAQSkZJRgABAQAAAQABAAD/2wCEAAkGBxITEhUSExMVFRUVFhUWFxUWFRUXFRYVGBUWFhgXFhUYHSggGBolGxUWITEhJikrLi4uFx8zODMsNygtLi0BCgoKDg0OFxAQFy8dHx0tKysrLSsrLS0tKy0tLS0tLS0tLSsrKystLS0rLS0tLS0tKys3LS0tLSstLS4tMC0tLf/AABEIAO4A1AMBIgACEQEDEQH/xAAcAAEAAQUBAQAAAAAAAAAAAAAABAIFBgcIAwH/xABDEAACAQIDBAcEBwUGBwAAAAAAAQIDEQQFIQYSMVEHE0FhcYGRIjKhwSNCUmKSsdEUM3Lw8WRzgqLC4QgkNFNjstL/xAAXAQEBAQEAAAAAAAAAAAAAAAAAAQID/8QAIhEBAQEBAAEDBAMAAAAAAAAAAAERAjESIeEDQZHwMlFx/9oADAMBAAIRAxEAPwDeIAAAAAAAAAAAAAAAAAAAAAAAAAAAAAAAAAAAAAAAAAAAAACJmOZ0aEd6tVp0o85zjFN8ld6ssktv8sTt+1Q/DUa9VGwGTAtuW7QYTEO1HE0akvswqQcl4xTuvNFyAAAAAAAAAAAAAAAAAAAAAAAAAAAAAAPjdtWak6QelfqnKjg5LTR19Hf+7vol953v2Lgz501bcdVF4KjKzf75rk0mqXg005eKXbI5/wATiJTd2wq7ZltFUqzc5SlOT4ylJtvxb1fqW95lPu+P6kMF1NXKjm8k1fs1uuK71c2TsX0t4nD2hWbxNFfVm/po/wANR8fCV13o1IfYya1Q1ddn7P59h8ZSVbDzU48GvrQla+7OPGMteHmrplzORdjdrq+CrKtRlaXCcH7lWH2ZL1s+K7O1Po3A7Q0cywaq0atWkpezUVOcY1qc7awcmnuvW6atdNNDEZXOaWraXi7HynWjL3ZJ+DTNL510aYStdyxuNcudapCtZ+cYv4mGZj0Y4ug9/C4iFW3CzdGp5Xe7/mGUdPA5byvpEznLpqnVnUmk9aeJTldX+rN+1bk02jbmyXSvQxitZQqpXlTb9rvcXwmvDXmkQbIBY6e0tN9nxPenn1F9rQF1BChmlJ/WPaGMpvhNeoHuAAAAAAAAAAAAAFp2pzqODwtXESt7EfZT+tN6RXhd691y7Gl/+IjPXGNHCRfG9WS8bxh+U/xAaXzfGzxFadScm3KTk2+Lbd2333b9WW1olxVlYjS4s1YtUnw+tnwygAAPqZmvR7tbLB1k2/o5WjVj9qHNL7S4rzX1jCSqnOzuWUdMY+omlODvGSUotcGnqmix1ca0Yx0b7RdZTeEm9YJypt9sHxivB6+D7i75noaR9zF0q8OrrQjOP3lqu+L4xfejXOf7OTw0uvw8pOEXvJp+3T77riu/1MmxOMaI6zPmWxU3ZLa91obs39JFe0uG+vtJc+aMmjmr5moc2odTVVajor3suEZcv4Xy8jJctzvrIqXBPir+7LtX89hINgQzjvJEM67zBFmBWsxGDZOA2nnTekrr7L1X+xmuS55SxC9l2kuMHx8VzRoaGaEzBZ7KnNThJpp3TJeR0CCx7J7QwxlHeVlONlOPJ9jXc/1L4ZAAAAAAAAA5W6XMydfNcRrdU59WuXsJR080dTV6qjGUnwim34JXOM8yxTq16tV8ZzlJ+cm/mWeVRpEZ/mSJkefEtKpABlAAAAABOynHyo1YVY8YS3vFdq9DbeIxEakIzj7s4qS81c0vFmf7IZlvYd0nxpOy/heq+ZqUUZj7xC3ifmEk5XLZUZsVVUpJxeqasyzYKo6NV037sml/8v42LnvluzendKS4rTy/r+Zmi+xq3R960t2CxG9FPmrPx/qe2+UTo1SvriAplSqFGWbG7SSwmIhUu9z3akftQfHzXFd6OhqVRSipRd4ySaa4NNXTRyfGqb66Ic66/BdXJ3lQlud+49Yf6l/hMdDOQAZAAAAABbdpam7g8TJcVQrP0pyOOKXC513t9O2W41/2asvWnJfM5DpS0LyKpoiskzkRS0AAZAAAVQg27In0cPFcdWedBKMb9rPkqjNyBiqq4JIuWyOK3azj2Tg1/ijqvhf1LHN6kjLq25UhLlKL8r6k33GWYqepBqMmZhDiW+5oU7x51vai1zR8kyneAjZZUsnHtTv8vkXNy7S1QdqrXP8Ar+pOUtESD3Uj6pHimVJlV77xsboSzHcxsqV9KtOSt96HtL4Kfqa1RlHRtiHDMsK+dTd/EnH/AFEvgdLAAwgAAAAAsO30L5bjV/Zqz9IN/I48UjtXOcN1mHrU/t0qkPxQa+ZxS0Acj4AAAAA+pHwqg9UBJnF8/I8pS5ElER9vizYoZ9iUn2Jn7jMXU3qcZc0vhp8i3VWSsA70IeHzZb8VxsbHjUra8yjrny+IaFgPBz+kT/nkTKVT2defyIVT95Hy/MmQWnmSD0jVR6KojyUStQKr3Uy/7Cu+YYS3/fpf+6MdjTMu6LsJv5nhlym5fghKXyJfCulQAYZAAAAAA4w2pwXU4zE0bWVOvVgl91Tkl8LHZ5yz04Zd1Ob1n2Vo06q84qMv80JAYEAAAAAAACZQ9qOj1WgdFIj0ari7+qJnWKXA3KI06ZQonvM85AZHlf8A09Nvg99fk/1IWJWpfcqwyeDp37bterLbiMOrlFqaCJ3ULkfY0VyAtMleov57ydTjp5kfDx3q8muEb+i9n5l7pUFZaEggxpvke0KL5E6FEk0sOUW6NBmz+hDKG8TVxDWlOnur+Kb/AEjL1MJp4a7N97AZL+y4OEWrTqfST53klZeUUvO5m1WSAAygAAAAAGlP+JHJbww2MivdcqM33S9uF/NT9TdZj23+R/tuX4jD2vKUHKH95D24fFJeYHHoLjjsonTpUq3GFVSs7cJwk4yg+9aepdNkdkamOlKMXu7sW7+n6mpxaMaBdNoMnlhqm5JNdjTWqktJL5+ZayWYAAIPqYufABU5vmI/IpJmVYd1KkILjKcY/HUsGwaOH3MNSj9xP11+ZZMVHUyfNHbRcErGO1o6mxC3CjFT3ISlyWnj2E2NIsmf17yVKOttXb7T4L+eYo9dn8PeMpfakory1fxa9DIY0D5lOA3IRj9la/xPV/Fv4F2pYYyINLDk6hg2XPBZY5dhluz+yUqrTkt2C4y+S5saIWwOy3XVVVqR+ipu+v1pdkfm/wDc24eODwsKUFTgrRjwXzfeexkAAAAAAAAAABo/aDLqGDzGpg8XH/kMZLroNX+iqS0bi1w3Z9n2ZtsyPGbRZblVLqcKoSlJNew4yafZKpO129eF+wvnSlsr+34KUYK9alepS01bt7UP8S08UjmSWIl7sr7y0d+J156/sXzbzaT9tjTcoWqwupTVrTj2XXNfNmGE3EtvUiSXav6Ge/eikAGAAAAybYunGNXrZ8KUHLvc5tQiku3izHKMLv8APwLjRxu5ye63NJ9s0rK75LjbufMeFk1lO0mdxpu3vSf1b/F8kY69oX9her/QtVdylJyk7t6tt8ymNk9dbcLcL99+KLqYyfHZiqdNP68kmo8rri+5EbZPKpVanWyV1F6X+tPjfy4+NijZvIquPxEKbmo77ftTajfdtdRvp2ru/I6O2d6PKNCEYyd7JKy5LvYtGvcuySc7JRbMzyjYabs5+yu/j6GeYTAU6a9iCXf2+pJGi0YDZ2jT+rvPv4ehdoq2i0PoIAAAAAAAAAAAAAAaC6bNhJUqksfQV6dSV6iS/dzdrt/dk+3npyvv08sVh4VISpzipQknGUXqmnxTA4tj7WnbyIr0Zs/pP6M6mDm69BOdBvRrjTu9Iz+T7fHQ1vQwFWct2EHKXJcX4czV9xHZ8Lrm2UPDRiqkourPXcjOMnTX/ktdXd+HZYtRLAB9SJdOioLelx7Fy/3GD7Tpbq4a8X8kRp8f5/ISrO97teBWsVPnfxSf5mbv2debxmXZ+/7HiyqMkuw944x9qj+FFzyTCVcQ5bsaMY01vTqVPZhBcNXcz136ZtanH0+r/O/j5bayXIMzxWCwc44ijXwSpUm8JQlHDSvFK8JVVCW9JNWleSu0+BuPLcUqtKE4pxTXuy96LWji+9NWNY9HOwcJYaosS53VaUYqlWnGm4blN33YStfec033GVT2OwmFpVKtGNWnOEJyUo1qt7xi3wcrdnIc9eqbPC3j6Xj1X8fLLQQcjxEqmGo1J+9OlTlLxlBN/mTjbhZlwAAQAAAAAAAAAAAAAACipwApq7sk4ySkmmmmrpp6NNPijVm2XRDQrN1MI1Sk9XSlfq2/uy1cfBprlY2TKqeUq5Wdcz5r0a4+i3fDVWrvWEesXjeG9bzsW+hsTjJOywuJb/uan57p1JLEmNbbbZ0sBQdSTTqSTVKnfWcub+6rpt/NoLrnvO8pngZKnWgoVHHe3N6MpxT93f3W91vjbjbiloWCrVcndnvmePqV6s61WTnOcnKUnxbf5ckuxJIii1QqhG5Sei0EgqlFF9yaWG/ZKynUqUsQmrOEnatSdlKm4tpPt/RmPOR8uTvmdew3l0TZ7mFHA71GhSxWFp1JxdOm9zFwsouUlD3aid+HvM2zkeeYbHUXOjLei7wqQkrThK1pU6kHrGXccybD5h1cWlV3J77cUpbj4LWLVm/C/YZNiM0qQqTxSqTjVcLSqQe5KdtYudlapJc5J6aFwdD4ejGEYwgrRilGK5JKyR6mBZJ0jYapGPXKdJ2V21vRbtzjqvQzTA46lVjvUqkJrnGSfrbgQSQAAAAAAAAAAAAAAAA0ABAxlDtRaK82jJWiDjcvUkVMY5UxJoLpaxdSeYTUpqUYxgqaTuox3btPk97eb8ja/SXg8XHCzWHhKUnKN91+0oJ3lZdvBK3Js0TjMU5NqcFGa0acbeqeqYwWoFdSFv6lIxVUD62emGwtSo92EJSfKKb/ACMnyro/xVWznaku/wBqXov1L4GJM9sNg6lR2pwlJ/dTZt3JujjDws5p1H97h+FaGaZfs9TikowjFckkh5Gh47M4+EdKUnHi46NfhejZCxOMrQi6U4zp34xd0rfwy4eVjqHDZRHkfcdshhq8d2rShNfein/QYOecu2gbSTipafU1f4Ja+lz1W0GIhU3qNWjC3C8p0qiXfqnfwNibS9B1OcXLBz6ufZCcm6b87OUfiYi+jLPKb3FRVSP2lVpOK85tNegGS5N0q4imkp1IVklrv625pVY2v53Nt7J7QQx2GhiIKyblGUb33ZRdmr2V+d+81Rs70K15tTx1eMI3/dUW5Ta5OpJJR8k/E3DkuT0MJSVDD01Tpxu1FX4vi23q2+bJcVOABEAAAAAAAAAAAAAAAAeVfDxkrNGGbU9G+Fxae9BKXZOOk15/IzgF0c9Y7oNrqT3MQnG+l6bvbvalqSMr6JKdN3ruVR8vdh6LX4m/Sl00+KQGtcv2Zp00owhGKXYkkvgXahlNuwzB4WH2UP2WPIuwWGjl65E6lhS49QitQRfVER6WHJEY2KgZtUABAAAAAAAAAAAAAAAAAAAAAAAAAAAAAAAAAAAAAAAAAAAAAAAAB//Z;" vertex="1" parent="wAobwoUItRhaqUtckkNE-80">
          <mxGeometry x="24.28" y="25" width="151.44" height="170" as="geometry" />
        </mxCell>
        <mxCell id="wAobwoUItRhaqUtckkNE-82" value="" style="swimlane;whiteSpace=wrap;html=1;" vertex="1" parent="wAobwoUItRhaqUtckkNE-77">
          <mxGeometry x="480" width="200" height="200" as="geometry" />
        </mxCell>
        <mxCell id="wAobwoUItRhaqUtckkNE-85" value="&lt;font style=&quot;font-size: 16px;&quot;&gt;Princípios&amp;nbsp;de solução&lt;/font&gt;" style="rounded=0;whiteSpace=wrap;html=1;fillColor=#dae8fc;strokeColor=#6c8ebf;" vertex="1" parent="1">
          <mxGeometry x="320" y="40" width="600" height="30" as="geometry" />
        </mxCell>
      </root>
    </mxGraphModel>
  </diagram>
</mxfile>
